<svg data-content="changed"  preserveAspectRatio=''  class='' id="leave2Svg" xmlns="http://www.w3.org/2000/svg" xmlns:xlink="http://www.w3.org/1999/xlink" width="436.65" height="545.03" viewBox="0 0 436.65 545.03">
  <defs>
    <clipPath id="leave2Svg_clip-path">
      <path d="M427.85,397.55c-1.27,3.06-2.44,6.17-3.86,9.17a55.45,55.45,0,0,1-10.22,15.39,53.8,53.8,0,0,1-10.29,8.1c-14.85,9.15-31,12.44-48.33,10.27a75.35,75.35,0,0,1-19.29-5.4c-.15-.06-.26-.21-.53-.45l2.68-6.07c.47-1.08,1.2-.52,1.89-.3,3.79,1.2,7.53,2.66,11.39,3.54a63,63,0,0,0,29.37-.36,70.77,70.77,0,0,0,25.62-12.55c5.71-4.28,11.32-8.61,15.79-14.21,1.89-2.37,3.63-4.85,5.44-7.28Z" fill="none"/>
    </clipPath>
  </defs>
  <g>
    <g>
      <g clip-path="url(#leave2Svg_clip-path)">
        <polyline id="wordLine" points="334.64 430.45 346.45 434.61 361.55 437.61 374.61 437.23 387.97 434.03 398.71 429.39 407.42 423.19 415.26 415.94 420.87 409.16 425.71 401.03 428.81 395.71" fill="none" stroke="#000" stroke-miterlimit="10" stroke-width="10"/>
      </g>
      <g id="_-.word-" class="word" data-name="-.word-">
        <path d="M42.09,393.73c5.55.12,10.51,6.12,9.37,11.53-.3,1.43-.88,2.79-2.59,2.79s-2.08-1.37-2.36-2.74c-.18-.91-.41-1.81-.65-2.7-.55-2-2.25-2.54-4-1.43-3.29,2.11-2.6,5.17-2.16,8.21.67,4.64,3.29,8.29,5.87,12,3.39,4.88,6.84,9.76,8.76,15.47a38.34,38.34,0,0,1,1.35,5.91c.54,3.28-2,7.75-5,9.12a12.75,12.75,0,0,1-7.32,1.43,7.47,7.47,0,0,1-5.76-3.65,26.92,26.92,0,0,1-2.3-5.73,2.19,2.19,0,0,1,1.8-2.85c1.28-.28,2.26.59,2.74,2a11.45,11.45,0,0,0,2,4.1,4.8,4.8,0,0,0,3.37,1.19c2.24-.05,3.24-1.79,2.08-3.71-2.38-4-4.93-7.8-7.53-11.59-2.09-3.05-4.57-5.84-6.53-8.95-3.55-5.63-4.21-12-3.43-18.4A14.6,14.6,0,0,1,37,395C38.4,394.14,40.36,394.13,42.09,393.73Z" fill="#1d1d1b"/>
        <path d="M130.83,378.85a27.32,27.32,0,0,1,2.1-2.85,9.39,9.39,0,0,1,2.53-2.05c2-1,3.78-.09,4,2.16.53,4.58.76,9.2,1.4,13.77.91,6.52,2,13,3.18,19.49.28,1.53,1.36,2.9,2,4.38a24,24,0,0,1,1.7,4.66c.33,1.77-.6,2.62-2.34,3-2.8.63-5.12-.09-6.63-2.51-1.68-2.71-3.11-5.57-4.69-8.43-.49,1.89-1,3.92-1.54,5.95-.33,1.22-.64,2.46-1.07,3.65a8.3,8.3,0,0,1-8.65,5.89,5.13,5.13,0,0,1-4.81-3.85c-1-3.13-1.7-6.35-2.56-9.52a46.43,46.43,0,0,1-1.11-19.75,48,48,0,0,1,2.85-10.49C119.13,377.69,125.85,376.08,130.83,378.85Zm-3.68,38.25h.56c.94-4.38,2-8.75,2.79-13.16a41.36,41.36,0,0,0,.75-8.22c-.1-3.74-.74-7.47-.94-11.21-.09-1.7-1-2.15-2.37-2.4s-2,.71-2.26,1.83a28.37,28.37,0,0,0-.78,5.63c0,4.2.16,8.41.41,12.6.23,3.78.63,7.56,1,11.33A30.3,30.3,0,0,0,127.15,417.1Z" fill="#1d1d1b"/>
        <path d="M91.33,388.92c0-5.54-.31-9.67.09-13.73a75.66,75.66,0,0,1,2.35-11.48c.81-3.14,3.65-3.95,6.37-4.65,1.11-.29,1.9.71,1.71,2.15-.29,2.22-.75,4.43-1,6.66-.73,5.73.51,11.37.85,17.06.61,10.47,3.07,20.65,4.81,30.94.56,3.33,1.47,6.64,4,9.23a4.61,4.61,0,0,1,.33,5.06c-.94,1.13-3.53,1.4-5.15.73-2.43-1-4.91-1.91-6.08-4.52a40.17,40.17,0,0,1-3-7.35c-1.45-6.36-2.62-12.77-3.75-19.19C92.16,395.74,91.71,391.61,91.33,388.92Z" fill="#1d1d1b"/>
        <path d="M76.61,422.43c-.67,2.58-1.28,5.21-2,7.79A19.7,19.7,0,0,1,73,434.06c-1.66,3.11-5.35,4.2-8.33,3.8a5,5,0,0,1-4.14-3.75c-.92-3.09-1.68-6.24-2.52-9.35a47.12,47.12,0,0,1-1.11-20.28,48.73,48.73,0,0,1,2.81-10.14c1.75-4.32,8.4-6.3,12.53-4.11l1.13.56a30.15,30.15,0,0,1,1.84-2.57,10.3,10.3,0,0,1,2.14-2c2.39-1.52,4.4-.6,4.71,2.2.51,4.59.72,9.22,1.35,13.79.89,6.4,2,12.79,3.16,19.15.28,1.53,1.38,2.89,2,4.37a24,24,0,0,1,1.69,4.67c.32,1.74-.65,2.58-2.39,3-2.81.64-5.11-.13-6.61-2.55C79.63,428.17,78.21,425.35,76.61,422.43Zm-7,6.7.6-.09c.94-4.38,2-8.74,2.79-13.15a40.45,40.45,0,0,0,.78-8.05c-.1-3.75-.75-7.47-1-11.22-.09-1.74-.95-2.32-2.41-2.55s-1.93.78-2.28,1.86a8.4,8.4,0,0,0-.48,2.36c0,4.31-.1,8.63,0,12.95.1,3.79.3,7.6.67,11.38A63.92,63.92,0,0,0,69.63,429.13Z" fill="#1d1d1b"/>
        <path d="M170.06,399.22c-.47,2.53-.95,5.06-1.38,7.6-.39,2.27-.68,4.57-1.07,6.84-.48,2.76-2,4.46-4.48,4.87-3.11.52-6.33.47-8-2.59a30,30,0,0,1-2.46-8.05,77.06,77.06,0,0,1-1.82-11.45,115.93,115.93,0,0,1,.09-15.37c.53-6.93,5.15-10.79,12.37-10.93,2.6-.05,2.67-.06,2.31-2.56a37.5,37.5,0,0,1,1.5-17.94,8.54,8.54,0,0,1,2.3-3.54c1.86-1.58,3.95-.65,4.31,1.76a46.64,46.64,0,0,1,.53,5.52A193.46,193.46,0,0,0,176.84,378c.83,5.37,1.38,10.77,2.24,16.12a48,48,0,0,0,2.1,8.74,29.71,29.71,0,0,0,3.56,6.29c1.49,2.22.86,4.36-1.82,5a7.18,7.18,0,0,1-7.75-2.6,19.58,19.58,0,0,1-3.87-8.8c-.23-1.17-.47-2.35-.7-3.53Zm-7.23,11.39h.62c.14-.67.3-1.33.42-2,.67-3.68,1.16-7.41,2-11,1.7-6.95,2.22-13.89.58-20.89a2.65,2.65,0,0,0-1.63-1.71,2.3,2.3,0,0,0-1.9,1.23,46.15,46.15,0,0,0-1.57,9.19c-.12,6.11.17,12.22.44,18.33C162,406,162.49,408.31,162.83,410.61Z" fill="#1d1d1b"/>
      </g>
      <g id="_-.word--2" class="word" data-name="-.word-">
        <path d="M230.39,391.65a56,56,0,0,1-2.15,5.77,20.78,20.78,0,0,1-3.2,4.88c-2.73,3-7.66,2.23-10.19-1.44a34,34,0,0,1-5.22-11.65c-1.38-6-2.79-11.93-3.87-17.95a37.15,37.15,0,0,1-.27-8.44,5.79,5.79,0,0,1,6.07-5.29c3.14.2,5.1,2.39,5.14,5.83a94,94,0,0,0,3,21.24,29.86,29.86,0,0,0,2.44,5.9c.74,1.51,2.12,1.57,3.15.18a9,9,0,0,0,1.57-7.89,127.77,127.77,0,0,1-4.52-25.89,2.47,2.47,0,0,1,.43-1.58,10.43,10.43,0,0,1,2.42-2.45c3.62-2.31,6.46-1.57,7.59,3.05,2,8.19,3.73,16.46,5.87,24.61a55.2,55.2,0,0,0,3.84,9.43,16.45,16.45,0,0,0,2.69,3.2L246,393a49.89,49.89,0,0,0,1.78-6.34c.83-5.65,1.5-11.33,2.12-17,.53-4.88-1.53-9-4.16-12.88a20.69,20.69,0,0,1-2.91-5c-1.05-3.37,1.18-5.44,4.65-4.4a8.71,8.71,0,0,1,3.39,2.24c2.19,2.18,2.67,5.15,3.41,8,1.82,7.05,1.63,14.24,1.55,21.39,0,2.56-1.16,5.12-1.87,7.65q-1.29,4.57-2.72,9.11c-.93,3-3.22,4.32-6.15,4.48-5.46.31-10-1.49-12.94-6.36-.42-.69-.87-1.36-1.32-2C230.75,391.78,230.61,391.76,230.39,391.65Z" fill="#1d1d1b"/>
        <g>
          <path d="M260.49,357.43c.05-4.45.5-5.09,3.71-6.32a18,18,0,0,1,2.61-.91c3.39-.72,6.07,1,6.54,4.47.41,3,.61,6.09.74,9.15a62.12,62.12,0,0,0,3.69,19.28c1,2.76,2.15,5.48,3.31,8.18a3.42,3.42,0,0,0,1.28,1.55c1,.6,2,1.14,1.66,2.5a3,3,0,0,1-2.64,2.43,8.73,8.73,0,0,1-7.57-2.12,23.07,23.07,0,0,1-5.81-9.15,115.18,115.18,0,0,1-6.37-23.18C261.28,361,260.74,358.68,260.49,357.43Z" fill="#1d1d1b"/>
          <path d="M256.88,338.26a5.86,5.86,0,0,1,3.75-5.33,29.45,29.45,0,0,1,4.56-1c1.57-.23,4.47,1.57,5.25,3.11,1.37,2.74.87,6.87-1.07,8.79s-6.61,2.39-9.13.79S257.22,340.52,256.88,338.26Z" fill="#1d1d1b"/>
        </g>
        <path d="M294.56,340.86c1.32-.57,2.5-1,3.6-1.57s2.11-1.39,3.26-.23A3.07,3.07,0,0,1,301,343a15.29,15.29,0,0,1-4,2.28,2.08,2.08,0,0,0-1.63,2.45c.33,9.29,2.06,18.37,4,27.42a27.82,27.82,0,0,0,2.49,6c1.35,2.82,3.83,3.51,6.69,3.12,1.38-.19,2.6-.18,3.17,1.3.64,1.66-.43,2.6-1.66,3.39-4.8,3-13,3.43-17.62-2.24-3-3.75-4.06-8-5-12.32-1.24-5.58-2.31-11.2-3.38-16.82a48.72,48.72,0,0,1-.49-5c-.07-.85-.22-1.47-1.35-1.2-1.58.38-2.89,0-3.46-1.71a2.83,2.83,0,0,1,1.62-3.59c3.41-1,2.87-3.34,2.84-5.91-.05-5.07.22-10.15.41-15.22a5.79,5.79,0,0,1,2.86-4.68,2.69,2.69,0,0,1,4,.71c2.38,3.07,2.51,6.76,3,10.34C293.9,334.39,294.17,337.44,294.56,340.86Z" fill="#1d1d1b"/>
        <path d="M322.31,362.71c1-5.55,1.93-11.19,3.12-16.77a33.29,33.29,0,0,1,2.41-6.65,8.66,8.66,0,0,1,5.22-4.56c2.41-.85,4.81.57,5.41,3.39,1.43,6.72,2.76,13.46,4.12,20.2,1.09,5.44,2.06,10.9,3.26,16.31a40.62,40.62,0,0,0,2.11,5.86c.9,2.29-.18,3.76-2.65,3.53-5.62-.54-8.73-4-10.44-9a58.4,58.4,0,0,1-3.12-15.38c-.2-3.53-1-7-1.59-10.53l-.68,0c-.49,2.27-1.18,4.52-1.44,6.82-.86,7.46-1.57,14.94-2.31,22.41a14,14,0,0,0,0,2.42,4.21,4.21,0,0,1-3.09,4.56c-2.74.86-4,.43-5.36-2a56.38,56.38,0,0,1-5.46-15.81,187.78,187.78,0,0,1-3.75-29.88c-.23-4.94-.16-9.91,0-14.86.12-4,3.22-6.62,7.17-6.58a2,2,0,0,1,2.22,1.9c.39,4,.69,8.05,1,12.08.2,2.34.42,4.68.64,7,.37,4,.68,7.93,1.16,11.88.41,3.31,1,6.6,1.55,9.89C322.06,360.22,322.17,361.53,322.31,362.71Z" fill="#1d1d1b"/>
      </g>
      <g id="_-.word--3" class="word" data-name="-.word-">
        <path d="M61.24,530.92a9.93,9.93,0,0,1-9.87-9.85,2.21,2.21,0,0,1,2.11-2.33c1.36-.19,2.07.64,2.48,1.9a12,12,0,0,0,1.65,3.9,5,5,0,0,0,3.21,1.63c2.55.2,3.61-1.63,2.58-4-2.53-5.75-6.63-10.41-10.52-15.2a29.76,29.76,0,0,1-6.74-14c-1.13-6.84-.71-13.25,4.69-18.6,4.31-4.28,14.08-4.34,16.36,4.32a13.24,13.24,0,0,1,0,5.39A2.69,2.69,0,0,1,65,485.55a3.13,3.13,0,0,1-2-1.69,17.53,17.53,0,0,1-.89-3.51c-.55-2.22-2.32-2.7-4.2-1.41-3.34,2.27-2.35,5.41-1.91,8.46.67,4.58,3.38,8.12,5.9,11.8,3.36,4.9,6.85,9.76,8.71,15.49,1.3,4,2.16,8.09-.35,12a4.89,4.89,0,0,1-1.41,1.69C66.43,529.8,64.05,531.3,61.24,530.92Z" fill="#1d1d1b"/>
        <path d="M72.35,476.3c-.44,0-.72,0-1,.07-1.55.31-2.9.17-3.56-1.56-.46-1.2.16-3.36,1.61-3.8,3.23-1,3-3.06,2.78-5.72-.42-5.58-.66-11.2.71-16.74a6,6,0,0,1,3.36-3.73,2.15,2.15,0,0,1,3,.92,26.08,26.08,0,0,1,2.53,6.34c.85,4.4,1.28,8.89,1.92,13.64,1.14-.48,2.36-.9,3.49-1.5s2.13-1.38,3.26-.21a3,3,0,0,1-.4,4,17.92,17.92,0,0,1-4.2,2.32,1.94,1.94,0,0,0-1.47,2.25,163.77,163.77,0,0,0,3.48,25.23,24.57,24.57,0,0,0,3,8.58,6.11,6.11,0,0,0,6.67,2.9c1.42-.2,2.54-.13,3.14,1.34s-.33,2.4-1.42,3.16c-4.49,3.13-13,3.78-17.65-1.83-3-3.65-4.2-7.73-5.12-12.08q-2-9.31-3.74-18.69C72.52,479.59,72.5,478,72.35,476.3Z" fill="#1d1d1b"/>
        <path d="M274.25,461.8c-.63,2.51-1.13,4.64-1.72,6.74a27.49,27.49,0,0,1-1.62,4.73c-1.85,3.73-4.77,4.57-8.3,4.52a4.86,4.86,0,0,1-4.5-3.76c-1.18-4-2.18-8.13-3.13-12.23a46.3,46.3,0,0,1,1.76-26.41A9.69,9.69,0,0,1,270,430.21l.86.48c.63-.88,1.17-1.75,1.83-2.52a11,11,0,0,1,2.11-2c2.38-1.59,4.51-.61,4.82,2.22.5,4.65.72,9.33,1.36,14,.87,6.34,1.95,12.67,3.13,19,.29,1.53,1.37,2.9,2,4.38a23.7,23.7,0,0,1,1.68,4.32c.42,1.93-.59,3-2.56,3.34a5.8,5.8,0,0,1-6.36-2.46,38.37,38.37,0,0,1-2.51-4.12C275.65,465.31,275.1,463.8,274.25,461.8Zm-7.07,7.12h.56c.75-3.46,1.63-6.9,2.23-10.39a68.77,68.77,0,0,0,1.33-10.76c.05-3.84-.71-7.68-.94-11.54-.1-1.65-1.09-2-2.32-2.25s-1.91.54-2.27,1.59a9.59,9.59,0,0,0-.55,2.34,67.44,67.44,0,0,0-.44,7.08c0,3,.32,6.1.56,9.14.29,3.67.6,7.33,1,11A34.16,34.16,0,0,0,267.18,468.92Z" fill="#1d1d1b"/>
        <path d="M148.82,478.1c.22-3.14.48-6.22.63-9.29.19-3.8.08-7.63.49-11.41a6.1,6.1,0,0,1,9.16-4.6,6.72,6.72,0,0,1,2.15,2.83A39.17,39.17,0,0,1,164.94,471a69.35,69.35,0,0,0,1.17,7,9,9,0,0,0,.58-1.29c.83-4.89,1.83-9.76,2.4-14.68a12.58,12.58,0,0,1,4.81-9c2.23-1.73,5-1.43,6.33,1.18a34,34,0,0,1,2.9,8.1c1.63,7.33,3.32,14.64,3.64,22.21a15.29,15.29,0,0,0,2.4,7.86,5.6,5.6,0,0,1,.35,5.94,4.34,4.34,0,0,1-2.05,1.9c-3.7,1.42-8.57-1.26-9.47-5.13-1.76-7.58-3.49-15.18-5.25-22.77,0-.08-.14-.13-.45-.39-.35,1.73-.69,3.33-1,4.93-1.27,7.09-3.3,14-3.65,21.31a6.1,6.1,0,0,1-1.7,3.57,3,3,0,0,1-4.47-.43,9.57,9.57,0,0,1-2-3.59c-.78-3.78-1.25-7.62-1.84-11.43-.61-4-1.19-8-1.82-12a46.84,46.84,0,0,0-1.71-7.56c0,.36-.11.72-.15,1.08-.4,4.46-.72,8.93-1.2,13.39-.57,5.29-1.22,10.56-1.92,15.83a13.34,13.34,0,0,1-1,3.61c-.74,1.64-1.9,3.13-3.91,2.89a4.75,4.75,0,0,1-4-3.61c-.8-2.76-1.44-5.58-2-8.41-1.14-5.42-2.12-10.88-3.32-16.28-.92-4.16-2.09-8.26-3.1-12.4a10.57,10.57,0,0,1-.31-2.74c0-1.75.43-3.37,2.33-4.07a5.45,5.45,0,0,1,5.55,1.49,12.79,12.79,0,0,1,1.84,3.31C144.83,466.47,146.77,472.18,148.82,478.1Z" fill="#1d1d1b"/>
        <g>
          <path d="M197.55,445.55a5.22,5.22,0,0,1,5.06,4.58c.43,4.07.57,8.17,1,12.25a67.59,67.59,0,0,0,6.8,24.5,12.11,12.11,0,0,0,1.51,1.8c.54.68,1.61,1.54,1.46,2a4.37,4.37,0,0,1-2,2.53,6.84,6.84,0,0,1-6.61-.81,15.47,15.47,0,0,1-3.92-3.82c-3.26-4.51-5-9.73-6.39-15.05-1.64-6.42-3-12.92-4.43-19.38a9.25,9.25,0,0,1-.19-1.89c0-3.49.51-4.29,3.81-5.5C194.92,446.32,196.24,446,197.55,445.55Z" fill="#1d1d1b"/>
          <path d="M200.59,434.69a6.82,6.82,0,0,1-7.08,6.7c-4.13,0-7.32-3.42-7.3-7.83,0-3.26,3.89-6,8.7-5.94C197.29,427.64,200.75,430.25,200.59,434.69Z" fill="#1d1d1b"/>
        </g>
        <path d="M225.8,467.73c.46-4.24.88-8.49,1.39-12.72a56.36,56.36,0,0,1,3.58-14.41,8.57,8.57,0,0,1,7.78-5.15c1.78.05,3.39,1.82,4.15,3.9,2.78,7.59,2.54,15.64,3.8,23.46.95,5.86,1.72,11.81,5.28,16.87.69,1,1.37,2.2.34,3.13a4.82,4.82,0,0,1-3,1.07,7.69,7.69,0,0,1-6.19-3.28A34.38,34.38,0,0,1,236,461.35c-.17-2.87-.62-5.73-1-8.58a15.44,15.44,0,0,0-1-2.69,10.61,10.61,0,0,0-1.13,2.17c-.57,2.64-1.43,5.29-1.49,8-.2,8.2-1.88,16.15-3.39,24.14-.39,2.06-1.52,2.93-3.76,3.17a4,4,0,0,1-4.54-2.36c-2.46-4.78-2.85-10.08-4-15.19-1.06-4.73-2.13-9.48-2.81-14.28-.61-4.32-.73-8.73-1-13.1-.09-1.49.42-2.78,2.09-3.15,1.85-.41,4-.76,5,1.22a40.73,40.73,0,0,1,3.8,9.4c1.18,5.27,1.69,10.7,2.47,16.06.08.54.11,1.09.16,1.64Z" fill="#1d1d1b"/>
        <path d="M115.84,463a26.68,26.68,0,0,1,1.79-2.52,10.74,10.74,0,0,1,2.26-2.11c2.36-1.49,4.42-.46,4.7,2.32.38,3.9.51,7.84,1.06,11.73.84,6.06,2.07,12.07,2.88,18.13a21.05,21.05,0,0,0,3,8.19,9.13,9.13,0,0,1,.53,1.09c1.1,2.56,1,4.39-.27,5.26-1.66,1.13-5.06.86-6.67-.57-2.56-2.26-3.84-5.3-5.08-8.36-.23-.57-.44-1.14-.83-2.13-.86,3.34-1.56,6.23-2.36,9.11-1.1,4-3.57,6.49-7.87,6.92-2.53.26-4.86-.79-5.68-3.21-1.13-3.33-1.91-6.77-2.84-10.16a48.6,48.6,0,0,1-.76-22,46.25,46.25,0,0,1,2.28-7.81c1.61-4.26,8.3-6.74,12.36-4.73C114.79,462.39,115.23,462.66,115.84,463Zm-3.74,38.39.58,0c1.08-5.13,2.28-10.23,3.2-15.38a31.11,31.11,0,0,0,.3-6.89c-.16-3.46-.72-6.89-.86-10.35-.07-1.72-1-2.17-2.31-2.47s-2,.63-2.37,1.72a6.59,6.59,0,0,0-.5,2q-.12,6.13-.13,12.26c0,1.56.15,3.12.27,4.67.22,3,.38,6,.73,8.94C111.22,497.71,111.73,499.54,112.1,501.38Z" fill="#1d1d1b"/>
      </g>
    </g>
    <g id="leave2">
      <path d="M278.59,206c-.49-13.35-1.31-26.68-2.13-40a129.8,129.8,0,0,0-3.71-25.33l-5.1-14.78a6.34,6.34,0,0,1-.27-.61c-2.3-6.35-4.79-12.63-6.78-19.08-1-3.08-.88-6.47-1.37-9.7a20.77,20.77,0,0,0-1.12-4.65,2.39,2.39,0,0,0-3.6-1.32c-7,4.66-15.18,5.27-23,7.3-9.35,2.44-19.64,6.71-31.77,13.92-4.4,2.61-7.64,4.89-9.51,6.2-7.18,5.06-13.46,9.66-20.19,17.12-4.62,5.12-9.1,10.32-11.35,17-.78,2.35-1.8,4.62-2.77,6.9-3.93,9.25-7.17,18.68-7.49,28.85-.18,5.49-.2,11-.28,16.48a19.17,19.17,0,0,0,0,3.79c.72,4,1.61,7.92,2.4,11.89,2.21,11.11,5.33,21.88,11.44,31.58a24.54,24.54,0,0,1,2.78,5.74,65.69,65.69,0,0,1-.49,40.59c-2.39,7.36-5.76,14.38-11.75,19.53a149.92,149.92,0,0,1-15.06,11.36c-8.84,5.85-18.82,9.24-28.83,12.5a38,38,0,0,0-6.79,3c-1.71.95-1.74,2.33-.35,3.72a34.58,34.58,0,0,0,3.64,3.2,3,3,0,0,0,2.1.67c6.54-1.34,13.21-2.35,19.56-4.35,7.38-2.32,14.91-4.61,21.16-9.56a7.26,7.26,0,0,1,.9-.52,65,65,0,0,0,5.93-3.39c5.31-3.8,10.45-7.84,15.78-11.6a78.35,78.35,0,0,0,12.27-10.14,58.13,58.13,0,0,1,24.83-16c5.7-1.8,11.66-2.75,17.51-4,2.29-.5,4.79-.44,6.9-1.33,5.85-2.46,11.56-5.25,17.27-8a13.52,13.52,0,0,0,3.47-2.55c11.41-11.3,19.82-24.24,23-40.3A145.16,145.16,0,0,0,278.59,206Z" fill="#1d1d1b"/>
      <g id="_-.hands-" class="hands" data-name="-.hands-">
        <g>
          <path d="M205.07,141.11a4.64,4.64,0,0,1-2.92,4,4.71,4.71,0,0,1-5.54-2c0-.12-.34-1.78-.36-1.89-.53-2.73-1.2-6.3-2-10.47-.06-.35-.13-.7-.19-1.06-1.42-7.81-1.79-10.31-2.56-14.59-3.63-20.28-5-25.51-7.67-40.34a73.82,73.82,0,0,1-.6-8.13,49.31,49.31,0,0,1-8.63-5,15.63,15.63,0,0,1-1.75-1.37c-3.39-3.33-4.62-9.85-1.73-14.3.33-.51,2.46-3.8,5.94-4a6.41,6.41,0,0,1,3.23.65,7.16,7.16,0,0,1,3.17,3.53c.88,1.88,1.53,3.86,2.3,5.79.47,1.21,1,2.1,2.67,2.09a2.62,2.62,0,0,0,2.87-2,14.54,14.54,0,0,1,1.6-3.05c.83-1.23,2.13-2.14,3.54-1.54A6.16,6.16,0,0,1,199.38,50a7.39,7.39,0,0,1,.09,5.28,15.13,15.13,0,0,1-4.12,6.65,16.56,16.56,0,0,1-2.54,2.3,17.27,17.27,0,0,1-5.24,2.63c.23.51.45,1,.69,1.54s.48,1,.71,1.57c0,0,.61,1.54,1.11,3.2.72,2.4,4.21,17.87,8.74,39.12Q201.94,126.71,205.07,141.11Z" fill="#1d1d1b"/>
          <path d="M303.48,58.63c0,.35-.07.7-.07.7a10.84,10.84,0,0,1-.6,2.25c-.21.56-.4.94-.66,1.48s-.63,1.23-.79,1.49a13.69,13.69,0,0,1-2.49,3,30.81,30.81,0,0,1-9.62,5.38,8.06,8.06,0,0,1-1.7.27c-.71,12-5.63,22.93-8.05,34.46-3.08,14.68-5.15,22.08-7,30.39-2.41,11-4.23,20-5.4,25.94-.29,3.14-3.21,5-5.44,4.47s-3.9-3.53-2.74-6.43c1.6-7.74,3.24-13.91,4.35-18.1,2.33-8.79,3.15-10.68,5.33-18.51,4.42-15.85,4.15-18.35,7.36-30.11,2.08-7.61,3-15.7,7.87-21.87A36.81,36.81,0,0,1,280,70.9,29.88,29.88,0,0,1,276.1,67a15.58,15.58,0,0,1-2.8-4.58,8.68,8.68,0,0,1-.53-5.43c.06-.23,1.07-3.85,3.56-4.16,1.81-.23,3.18.75,4.14,3,.18.42.34.86.49,1.29.89,2.69.89,2.63,3.66,2.73a1.87,1.87,0,0,0,2-1.22c.73-1.52,1.46-3,2.23-4.51,2.14-4.09,5.06-5.6,8.66-4.52A8.45,8.45,0,0,1,303.48,58.63Z" fill="#1d1d1b"/>
        </g>
        <path d="M334.69,84.31q-2.12-18.07-4.35-36.15c-.75-6.07-1.45-12.17-2.47-18.2-1.24-7.28-5.95-9.84-12.94-7.53a4.23,4.23,0,0,0-3.11,3.89c-.59,5.57-1.28,11.15-1.43,16.74-.13,5.3.37,10.63.59,15.94,0,.61,0,1.21,0,2L272.41,59.1l-2.76-.27c-15.75-1.58-31.43-3.11-47.07-4q-5.49-.31-11.11-.53c-15.41-.58-30.26-.55-44.51,0h-5c.07-1.51.22-3,.18-4.39-.11-4.9,0-9.82-.52-14.69a31.46,31.46,0,0,0-1.17-5.46c-.37-1.26-.76-2.52-1.08-3.78-.27-1.05-.33-2.31-1-3.07a10.17,10.17,0,0,0-6.51-3.66c-6.53-.87-12,1.15-16.08,6.43a31.51,31.51,0,0,0-6,14.77c-2.43,15.32-2.3,30.77-2.38,46.21,0,3.08,2.4,5,5.49,4.55,5.5-.74,11-1.57,16.47-2.33,4.47-.62,7.25-3,8.2-7.49.33-1.53.67-3.06,1-4.6s.7-3.25,1-4.89c.65-3.51,1.16-7,1.8-11.08,3.71,0,7.42,0,11.12,0l-.06-.08c7.52-.14,16.5-.21,25.55-.08,4.45.06,7.89.16,8.64.18q8,.22,16,.69,16.52.91,33,2.66c5,.53,10,.93,15.07,1.4l3.39.32a3,3,0,0,1,.56.13l36.64,1.64v3.63c0,6.25-.13,12.5,0,18.74.15,5.65,3.58,9.45,8.52,9.56a19.31,19.31,0,0,0,10.87-3,8.63,8.63,0,0,0,4.07-6.74A26.32,26.32,0,0,0,334.69,84.31Z" fill="#1d1d1b"/>
      </g>
      <g>
        <path d="M205.11,207.16c-.84,1.29-1.75,2.53-2.63,3.79l-.73-.43c.74-1.39,1.46-2.79,2.25-4.15.07-.13.61-.17.76,0S205.21,207,205.11,207.16Z" fill="#fff"/>
        <g>
          <path d="M224,247.46c-.37-2.24,6.46-18.89,8.53-20.69C230.82,234,228.41,240.93,224,247.46Z" fill="#fff"/>
          <path d="M233.1,226l-.81-.29,1.76-4,.6.25Z" fill="#fff"/>
          <path d="M222.37,250.9l-.69-.38,1.5-2.94.82.54C223.45,249,222.91,250,222.37,250.9Z" fill="#fff"/>
        </g>
        <path d="M262,215.86a39,39,0,0,1-3.08,12.36,23.86,23.86,0,0,0-1.42,4.41,67.83,67.83,0,0,1-6.64,17.58,17.09,17.09,0,0,1-1.95,2.49l-.53-.29c.29-.89.54-1.8.89-2.67,2-5.2,3.9-10.49,6.21-15.56,2.73-6,2.7-12.6,4.79-18.7.32-.92.6-1.85.89-2.77l.53,0A16.39,16.39,0,0,1,262,215.86Z" fill="#fff"/>
      </g>
      <g>
        <path d="M233.55,188.69c-1.61,4.31-3,8.77-5.24,12.76-2.87,5.15-6.16,6-12.63,4.94a5.68,5.68,0,0,1-4.06-3,30.3,30.3,0,0,1-3.92-16.81,2.05,2.05,0,0,1,.24-.55c9.23,3.18,18.06,2.3,26.94-3A46.82,46.82,0,0,1,233.55,188.69Z" fill="#fff"/>
        <path id="_-.eye-" class="eye" data-name="-.eye-" d="M208,161.75c1-.7,1.54-1.56.2-2.44l1.08-.95c-.43-.42-.82-1.15-1.28-1.19-1.67-.14-2.43-.94-2.28-2.57.12-1.34,1.3-2.15,3.07-2.18,3.67-.08,6.47,3.72,5.9,8-.39,2.88-2.11,5-4.56,5.48a2.28,2.28,0,0,1-2.82-1.12A2.17,2.17,0,0,1,208,161.75Z" fill="#fff"/>
        <path id="_-.eye--2" class="eye" data-name="-.eye-" d="M237.49,156.11a6.12,6.12,0,0,1-3.28,2.24c-.7.22-1.94-.48-2.56-1.13a1.88,1.88,0,0,1,.18-2.65,5.16,5.16,0,0,0,.62-2.16c.06-.26-.13-.58,0-.82.63-1.91.58-3.28-2-3.48-.4,0-1.09-1.46-1-2.11a3.38,3.38,0,0,1,1.6-2.17c2.35-1.14,5.6.1,6.93,2.64a28.68,28.68,0,0,1,1.48,4.48A26.83,26.83,0,0,1,237.49,156.11Z" fill="#fff"/>
      </g>
    </g>
  </g>
</svg>
