<svg data-content="changed"  preserveAspectRatio=''  class='' id="leave1Svg" xmlns="http://www.w3.org/2000/svg" width="501.73" height="420.58" viewBox="0 0 501.73 420.58">
  <g>
    <g>
      <g id="_-.word-" class="word" data-name="-.word-">
        <path d="M299.63,11a14.46,14.46,0,0,1,.3-3.25,4.18,4.18,0,0,1,1.6-2.29c2.14-1.12,8.51,1.75,9,4.13,1.71,8.25,3.38,16.53,4.78,24.84.41,2.45,1.26,3.33,3.61,2.79a16.09,16.09,0,0,1,12.28,2.28c4,2.39,8.72,3.43,11.67,7.65,3.81,5.44,5.46,11.21,2.68,17.3-1.83,4-4.82,7.49-7.41,11.11-.75,1-2.13,1.63-2.91,2.66-5.34,7.07-12.29,8.09-20.23,5.5a3.28,3.28,0,0,1-1.79-1.2,47.73,47.73,0,0,1-6.42-18.79C305.23,49.8,303,36,301.07,22.07c-.52-3.68-1.11-7.36-1.66-11Zm18.11,36.7a8.8,8.8,0,0,0-.23,1.69q.67,8.53,1.41,17.06c.68,7.86.7,7.86,8.27,5,6.89-2.65,8.94-10.12,4.62-16.17C328.41,50.47,324.1,47.65,317.74,47.69Z" fill="#1d1d1b"/>
        <path d="M359.9,44.78c1.18-6.47,2.37-13,3.58-19.55a6.68,6.68,0,0,1,.76-2.46,5.62,5.62,0,0,1,6.87-2.47c2.78.93,2,3.44,1.76,5.33-1.36,11-3.09,21.94-4.31,32.94-.92,8.37-1.23,16.8-1.85,25.2a16.31,16.31,0,0,1-4.9,11c-.78.73-3.37.95-3.82.38-1.67-2.12-4-4.72-3.89-7a149.54,149.54,0,0,1,2.62-21.16c.91-4.88.44-8.93-2.34-13.24-3.92-6.06-7.07-12.63-10.4-19.05a21,21,0,0,1-1.86-5.59c-.53-2.67,1.17-4.21,3.47-4.77s3.12,1.13,3.53,3.22a11.21,11.21,0,0,0,1.73,3.83C353.78,35.81,356.81,40.21,359.9,44.78Z" fill="#1d1d1b"/>
        <path d="M390.38,42.25c4.46,4.17,8.83,6.75,14.29,7.15,2.62.19,5.29-.11,7.86.28a4.26,4.26,0,0,1,2.87,2.37c1.4,4.23-2,8.5-6.94,8.57-7,.09-13.62-2-19.88-5.08-2.06-1-4-2.3-5.95-3.51-4.75-2.91-6.56-7.23-5.76-12.63a25.81,25.81,0,0,1,26.07-22.34A13.59,13.59,0,0,1,416.32,29.9c.11,1.64,0,3.29,0,4.94-.08,3.87-.67,4.35-4.6,4.69-6.32.54-12.63,1.22-18.94,1.87A15.57,15.57,0,0,0,390.38,42.25Zm.29-6.3L407,32c-.13-4.61-3.43-7.58-7.87-7.13C394.4,25.34,390,31.15,390.67,36Z" fill="#1d1d1b"/>
      </g>
      <g id="_-.word--2" class="word" data-name="-.word-">
        <path d="M411.67,152.36c-2.92-.24-5.12-.32-7.28-.64a3.6,3.6,0,0,1-2.13-1.27A46.37,46.37,0,0,1,394,132.37c-2.62-12.45-5.71-24.8-8.68-37.17-1.29-5.4-3.08-10.69-4-16.14-.66-3.92.9-4.44,4.88-4.13,5.05.39,6.48,3.75,7.61,7.61,2,6.95,3.89,14,6,20.88.22.72,1.86,1.71,2.46,1.49,8-2.81,14.77,1.33,21.41,4.22s11.64,11.65,8.8,20.34a47.38,47.38,0,0,1-5.42,10.78c-1.89,2.93-4.47,5.41-6.77,8.07A11.17,11.17,0,0,1,411.67,152.36Zm-7.31-37c-.23.42-1.18,1.36-1.05,2.11,1.19,7.13,2.56,14.24,3.9,21.34.29,1.58,1.17,2.47,2.78,1.68a61.4,61.4,0,0,0,8.64-4.68,6.29,6.29,0,0,0,2.2-4.43C420.94,122.83,414.56,115.35,404.36,115.4Z" fill="#1d1d1b"/>
        <path d="M445,107.18c.37-6.46.66-12.88,1.17-19.29.12-1.53.55-3.64,1.6-4.36a9.75,9.75,0,0,1,5.94-1.61c.79.06,1.94,2.8,1.93,4.32-.08,10.64-.62,21.27-.62,31.91,0,8.75.35,17.52.92,26.25.3,4.49-.58,8.5-3.41,11.82-.81,1-3.85,1.51-4.44.89-1.78-1.87-3.93-4.37-4-6.68-.3-8.63.24-17.29.31-25.94a7.69,7.69,0,0,0-1.25-4.11c-4.63-6.8-9.48-13.46-14.1-20.27a30.42,30.42,0,0,1-3.19-6.47,4.18,4.18,0,0,1,2.91-5.43c2.52-.67,3.19,1.09,3.88,3a11,11,0,0,0,1.68,3.14C437.72,98.55,441.24,102.71,445,107.18Z" fill="#1d1d1b"/>
        <path d="M475.86,101.78a20,20,0,0,0,12.59,5.09,48.91,48.91,0,0,0,8.52-.55c3.46-.35,5.26,1.58,4.64,5.11a7.22,7.22,0,0,1-8.05,6.27,135.76,135.76,0,0,1-18.41-2.89c-2.2-.44-4.22-1.8-6.31-2.77-5.55-2.57-8-7-7.26-13,1.59-12.91,8-20.26,20.45-23.61a14,14,0,0,1,18,12.46c.82,7.93.8,7.81-7,9.08-5.7.93-11.33,2.24-17,3.38Zm-1.23-6.53c4.48-1.61,8.93-3.35,13.47-4.79,2.67-.84,3.35-1.73,1.64-4a8.31,8.31,0,0,0-4.08-2.95C479.33,81.87,473.35,88.37,474.63,95.25Z" fill="#1d1d1b"/>
      </g>
    </g>
    <g id="leave1">
      <path d="M322.51,156.57a71.31,71.31,0,0,0-15.73-21.39c-10-9.33-22.11-14.08-35.16-17-1.43-.32-2.82-.81-3.65-1.06,1.41-4.11,3.68-7.79,3.74-11.51a92.46,92.46,0,0,0-1.87-21.47c-1-4.35-3.77-8.72-6.82-12.12-9.87-11-22.58-13.62-36.71-11.1-2.83.51-5.7.82-7.7,1.1-.42-5,.06-9.65-1.33-13.72a62.3,62.3,0,0,0-17-26.28c-5.78-5.27-15.33-5.83-21.31-.86C166.7,31.34,158.29,44,156.4,60.11c-.65,5.6-.1,11.33-.1,17.08-7.12,1.35-14,2.59-20.93,4s-14,2-20.13,5.82c-17.63,11-19.24,38.75-3,52.49,3.33,2.83,6.76,5.53,10.44,8.53-2.34,1.94-5.72,4.83-9.67,8.47-12.17,11.23-18.26,16.84-21.65,24.05C89.26,185,84.76,196.81,88.86,209a30.91,30.91,0,0,0,4.92,9.11c4.78,6.19,11.75,10.77,18,15.75,2.94,2.35,6.49,2.11,10,.58a18.94,18.94,0,0,1,6.63-1.63c5.68-.24,7.09,1.66,5.06,6.83-4.77,12.21-5.49,24.78-3.85,37.62.64,5,2.16,9.67,5.81,13.35,6.57,6.63,13.12,13.29,19.85,19.77,6.25,6,13.59,10.31,22.43,10.67a189.15,189.15,0,0,0,22.71-.54c4.2-.35,8.3-1.93,12.43-3a12,12,0,0,0,2.33-1.32H203.81c.79-.61.94-.82,1.13-.86q8.52-1.9,17.05-3.78c4.62-1,4.83-1.1,6.22,3.32,3.42,10.89,6.38,21.93,10,32.77,5.14,15.53,10.54,31,16.06,46.36,3.78,10.57,10.41,19.22,18.93,26.6,3-4.8,2.26-9.19.09-13.75-2.31-4.86-4.13-9.93-6.19-14.9-8.64-20.91-17.26-41.82-22.66-63.88-1.55-6.36-3.23-12.69-4.73-18.6,8.37-4.09,16.31-8,24.31-11.84a15,15,0,0,1,4.73-1.36c7.49-.83,14.14-3.77,20.35-7.85,4.17-2.74,8.36-5.31,13.62-5.16a2.8,2.8,0,0,0,1.52-.51c12.05-8.29,17.44-24,13.57-35.15a83.3,83.3,0,0,0-22.51-34c-1.81-1.68-3.8-3.18-6-5,2.22-1.7,3.5-2.72,4.81-3.69,7.78-5.74,15.68-11.33,23.29-17.29,2.43-1.9,5.08-4.45,6-7.23C325.83,172.48,326.22,164.31,322.51,156.57Z" fill="#1d1d1b"/>
      <g id="hand">
        <path d="M143.47,180.65c4.28,1.59,6.58,5.46,5.94,8.24-.77,3.32-6,6.26-11.54,4-20.3-7.41-41.48-16.16-63.25-26.55q-9.91-4.73-19.34-9.58c-8.17,4.83-17,9.17-27.44,7.48a19.4,19.4,0,0,1-12.64-7.09A15,15,0,0,1,14.09,141a11.31,11.31,0,0,1,12.13-5.43c3,.5,6,1.41,9,2.1a18.37,18.37,0,0,0,4.51.84c1.73-.06,4.38-.17,4.93-1.19.66-1.2-.24-3.49-.92-5.13-.92-2.21-2.46-4.16-3.4-6.37-1.12-2.64-1.39-5.42,1.1-7.58s5.48-2.46,8-.76c2.82,1.93,5.73,4.3,7.43,7.17,4.67,7.85,4.93,16.6,4,24.75q8.43,2.85,16.94,5.88Q112,167.39,143.47,180.65Z" fill="#1d1d1b"/>
        <circle cx="140.52" cy="185.72" r="163.69" fill="none"/>
      </g>
      <path d="M251.55,84,249,78.84Z" fill="#fff"/>
      <g>
        <path id="_-.eye-" class="eye" data-name="-.eye-" d="M222.88,135.92a8.84,8.84,0,0,1-5.38-.56c-6.56-2.66-9.34-13.24-5-18.82a10.79,10.79,0,0,1,3.25-2.67c3.05-1.69,5.87-1.18,7.29,1.09s.65,4-2.17,5.86a39.29,39.29,0,0,0,1,5.62c.24.72,1.5,1,2,1.73,1,1.36,2.68,3,2.51,4.28S224.34,135.48,222.88,135.92Z" fill="#fff"/>
        <path id="_-.eye--2" class="eye" data-name="-.eye-" d="M182.33,135.76c-.6,1.24-2.43,2.75-3.6,2.66a14.23,14.23,0,0,1-6.94-2.28,15.74,15.74,0,0,1-6.19-11.88c.14-6.45,3.6-10.7,8.58-11.5,2.4-.39,4.41.17,5.42,2.57.94,2.24.44,4-1.9,5.16a2.75,2.75,0,0,0-.91,2.52c1.69,2.84,1.18,6.89,5,8.67C182.52,132,182.85,134.68,182.33,135.76Z" fill="#fff"/>
        <path d="M194.32,150.15c1.91,2.08,4.65.92,5.54-1.92.82-2.66.82-2.66,4.16-3.18,1.18,5-1.25,9.33-5.7,10.4-4.18,1-8.23-1.52-9.46-6C190.81,148.67,192.41,148.08,194.32,150.15Z" fill="#fff"/>
        <path d="M216.27,176.59c-.23,5.2-4.53,8.86-9.93,9.12-8.16.4-20.17-8.86-21.87-16.9a9,9,0,0,1,.19-2.19c13.39,6.88,22.16-.5,30.4-9.52l1.28.21C216.34,163.74,216.56,170.17,216.27,176.59Z" fill="#fff"/>
      </g>
    </g>
  </g>
</svg>
