<svg data-content="changed"  preserveAspectRatio=''  class='' id="leave3Svg" xmlns="http://www.w3.org/2000/svg" width="542.93" height="557.19" viewBox="0 0 542.93 557.19">
  <g id="leave3">
    <g>
      <path d="M207.62,260.59l-84.39,14.1a3.89,3.89,0,0,0-1.73,0c-4.09.78-8.21,1.47-12.33,2.09-1.4.21-3.08.61-4.22.06-3.3-1.59-4.22.39-5.63,2.73-4.13,6.82-9.12,12.87-17.4,14.81-5.3,1.24-10.38.73-14.39-3.53-4.53-4.82-5.13-14.77,4.09-17.8,3.47-1.14,7-2.14,10.43-3.35,1.38-.49,3.18-1,3.2-2.84,0-1.72-1.59-2.5-2.88-3.29-1.64-1-3.42-1.81-5-2.89-2.12-1.46-3.72-3.42-2.93-6.18s3.11-4.13,6-4.38a10.84,10.84,0,0,1,4.22.5c9.38,2.89,13.51,10.64,17.94,18.44,5.12-2.73,11.4-2.5,17.47-4l84.38-15.26c4.25-1.61,8.38.94,8.95,3.88C213.92,256.35,211.6,259.88,207.62,260.59Z" fill="#1d1d1b"/>
      <path d="M503.49,284.94c-.56,4.86-5.26,9.2-10.66,9.83-6.65.78-12.2-1.6-16.93-6.08a37.28,37.28,0,0,1-8.56-11.75c-.27-.6-.34-1.18-1.19-.81-2.77,1.21-14.12-.51-14.12-.51-5.37-.85-16.75-2.1-32.27-3.82l-64.19-9.48a5.08,5.08,0,1,1,2.15-9.86l64.95,9.09c4.35.65,7.89,1.11,10.25,1.41,13.17,1.64,18.55,1.65,26.84,4.21,2.55.79,4.58,1.57,5.83,2.08,4.21-8.17,8.65-16,18.39-18.73a11.26,11.26,0,0,1,3.61-.36c2.88.16,5.19,1.44,6,4.32.78,2.73-.74,4.75-2.89,6.2s-4.29,2.35-6.26,3.77c-2.51,1.81-2.3,3.21.4,4.75a29.14,29.14,0,0,0,6,2.22c1.45.45,2.94.8,4.39,1.26C501.91,274.83,504.25,278.32,503.49,284.94Z" fill="#1d1d1b"/>
    </g>
    <g>
      <path id="heart" d="M425.68,208.13c-3.17-10.26-5.11-20.82-9.34-30.85-3.63-8.64-5.4-18.07-7.83-27.2-1-3.9-3.25-6-7.24-6.77-32.29-6-62.28-.45-89.45,18.22a186.07,186.07,0,0,0-29.12,25q-6.84-9.27-13.74-18.61a15.18,15.18,0,0,0-2.12-2.58c-6.16-5.32-12.49-10.47-18.55-15.91-15.24-13.64-33.64-20.34-53.32-23.67-14-2.37-28.17-4.16-42.12-7.06-9.64-2-19.21-4.31-28.89-6.49a34.77,34.77,0,0,0,.82,10.64c2.15,10.57,3.18,21.08.32,31.75-1.1,4.1-3.52,7.53-4.84,11.45-1.84,5.48-3.22,11.11-5,16.59-3.64,10.91-5.94,21.9-4.32,33.55.39,2.8.13,13.32,3.07,27.29,7.26,34.43,25.22,59.36,33.91,71.17,3.91,5.31,3.18,4.35,17,21.7,7.47,9.36,14.94,18.72,22,28.4,6.86,9.38,15.06,17.67,23.46,25.71,22.07,21.16,47.44,37.63,74.05,52.39,18,10,36.55,19.18,53.75,30.67A10.22,10.22,0,0,0,344.6,475c6-.37,12-.81,18-1.36,4-.36,6.18-2.79,7-6.58.68-3.19,1.23-6.4,2-9.56,1.28-5.44.41-6.7-5.26-7.19-1.93-.16-3.86-.21-5.8-.29a69.21,69.21,0,0,1-16.25-2.52c-13.06-3.7-23.41-10.75-28.68-23.82-2.92-7.25-2.32-14.06,2.54-20.43a109.9,109.9,0,0,1,11.06-12.63c3.46-3.32,17.12-17.88,43.88-47.62,35.2-39.1,52.23-84.76,53.75-110.64A120,120,0,0,0,425.68,208.13Z" fill="#1d1d1b"/>
      <g>
        <path d="M401.18,244a38.72,38.72,0,0,1-4,18.16c-5.92,12.38-8.15,26.51-17.66,37.23C388,281.37,395.87,263.16,401.18,244Z" fill="#f9f9f9"/>
        <path d="M176.65,244.07c-5.23-10.68-9.25-21.73-10.49-33.66A219.81,219.81,0,0,1,176.65,244.07Z" fill="#f8f8f8"/>
        <path d="M139.32,232.88a14.72,14.72,0,0,1,2.48,5.87c2,7.21,4.32,14.32,7,21.32.18.47,1.17,1.26,0,1.73a1.36,1.36,0,0,1-2-.8c-3.41-8.55-6.56-17.19-7.66-26.41A9.6,9.6,0,0,1,139.32,232.88Z" fill="#f9f9f9"/>
        <path d="M152.19,271.56a92.18,92.18,0,0,1,11.5,23.52C157.26,288.53,154.14,280.31,152.19,271.56Z" fill="#f9f9f9"/>
        <path d="M377.29,223.13c-1,10.68-4.72,20.55-9.34,30.14A199,199,0,0,1,377.29,223.13Z" fill="#f7f7f7"/>
        <path d="M217.4,226.79c1.42,2,1.6,4.35,2.26,6.54a1.16,1.16,0,0,1-.94,1.59c-.79.14-1-.6-1-1.19C217.38,231.44,216.79,229.16,217.4,226.79Z" fill="#dbdbda"/>
        <path d="M331.59,238c-.24,2.07-.46,4.15-.74,6.21-.07.48-.28,1.05-.92,1-.82-.08-.87-.79-.76-1.37a21.66,21.66,0,0,1,1.63-5.93Z" fill="#e4e4e4"/>
        <path d="M177.07,244.92a11.9,11.9,0,0,1,2.33,7.55C177.88,250.08,176.89,248,177.07,244.92Z" fill="#d8d8d7"/>
        <path d="M367.8,254.23a15,15,0,0,1-2.46,7.1C365.37,258.25,365.77,256.23,367.8,254.23Z" fill="#bdbdbd"/>
        <path d="M164.06,203.24a6.75,6.75,0,0,1,1.75,5.83C163.77,207.57,164,205.71,164.06,203.24Z" fill="#e3e3e3"/>
        <path d="M377.74,221.7c-.57-1.89.15-3.33,1.18-5C379.55,219.62,379.55,219.62,377.74,221.7Z" fill="#cecece"/>
        <path d="M162.29,197c1.58,2.05,2.14,3.49,1.65,5.43C162.28,201.05,162.21,199.44,162.29,197Z" fill="#d3d3d2"/>
        <path d="M379.53,215.69a3.55,3.55,0,0,1,1.09-4A4.46,4.46,0,0,1,379.53,215.69Z" fill="#e6e6e6"/>
        <path d="M212.22,213.4c.09-.62.29-1.2,1-1.18a1,1,0,0,1,1,1.16,1.19,1.19,0,0,1-1.06,1.22C212.47,214.66,212.31,214,212.22,213.4Z" fill="#ececec"/>
        <path d="M334.93,224.57c.6.24,1.05.63.93,1.32-.1.5-.43,1-1,.92-.73-.08-.94-.68-.87-1.31S334.29,224.55,334.93,224.57Z" fill="#d9d9d9"/>
        <path d="M184.22,266.1c-1.31-1.31-1.29-2.63-1.13-4.41A5.12,5.12,0,0,1,184.22,266.1Z" fill="#d7d7d7"/>
        <path d="M362.05,269.13a4,4,0,0,1-.85,4C360.57,271.67,361.18,270.55,362.05,269.13Z" fill="#c7c7c6"/>
      </g>
    </g>
    <g>
      <path id="_-.eye-" class="eye" data-name="-.eye-" d="M304.14,243.2c-.77,2-2.65,2-4.41,1.79-4.21-.54-7-4.15-7-8.92,0-4.33,2.37-7.69,6.12-8.77,2.08-.6,3.89-.42,4.89,1.72.92,2,.19,3.18-1.83,4-1.25.51-.9,4.93.5,5.65A3.26,3.26,0,0,1,304.14,243.2Z" fill="#fff"/>
      <path id="_-.eye--2" class="eye" data-name="-.eye-" d="M257,239.62a15.93,15.93,0,0,1-2.81-9.17c.24-6.09,4.59-10.73,10.16-10.94,2.35-.08,4,.84,4.71,3s0,3.74-2.39,4.42a2.23,2.23,0,0,0-1.48,2.45c.25,2.7-.32,5.66,2.7,7.5,1.6,1,1.43,2.8.87,4.41a3.7,3.7,0,0,1-4,2.58A10,10,0,0,1,257,239.62Z" fill="#fff"/>
      <path d="M293.84,291a7,7,0,0,1-3.52,3.25c-5.48,2.19-14.11,2.91-19.2-3.67-6.41-8.28-9.53-17.93-12.08-28.13,16.19,7,20.06,7.27,39.56,2.41C299.66,274.05,298.4,282.8,293.84,291Z" fill="#fff"/>
    </g>
  </g>
</svg>
