<?xml version="1.0" encoding="utf-8"?>
<!-- Generator: Adobe Illustrator 24.3.0, SVG Export Plug-In . SVG Version: 6.00 Build 0)  -->
<svg data-content="changed"  preserveAspectRatio=''  class='' version="1.1" id="cowSvg" xmlns="http://www.w3.org/2000/svg" xmlns:xlink="http://www.w3.org/1999/xlink" x="0px" y="0px"
	 viewBox="0 0 849.8 446.5" style="enable-background:new 0 0 849.8 446.5;" xml:space="preserve">
<style type="text/css">
	.st0{fill:#9A9983;}
	.st1{fill:none;stroke:#FFFFFF;stroke-width:1.87;stroke-dasharray:10.37,10.37,10.37,10.37,10.37,10.37;}
	.st2{fill:#EB4996;}
	.st3{fill:#DBA1C9;}
	.st4{fill:#221F1F;}
	.st5{fill:#D98861;}
	.st6{fill:#F2BE3B;}
	.st7{fill:#A396C3;}
	.st8{fill:#ED95A7;}
	.st9{fill:#A5D7C9;}
	.st10{fill:#FFCB62;}
	.st11{fill:none;stroke:#FFFFFF;stroke-width:2.07;stroke-dasharray:11.48,11.48,11.48,11.48,11.48,11.48;}
</style>
<g id="Шар_2_1_">
	<g id="Layer_1">
		<g>
			<path class="st0" d="M821.2,167.1c8-0.6,16.7-10.9,19.1-13.4s10.5-9.2,9.4-16.6s-6.1-13.6-15.9-22.9s-32.6-45.3-38.1-58.3
				s-17.3-26.7-17.3-26.7c1.9-3.4,4-6.6,6.3-9.7c3.7-4.9,16.2-17.8,14.3-19s-14.8,1.8-14.8,1.8L781.1,0h-3.6
				c-3.5,0-27.3,3.8-27.3,3.8c-11.7,2.4-25.4,11-25.4,11C712.6,13.5,689.8,9,689.8,9l-13.9,5.4c0,0-62.5-10-108.2,0.3
				S464.8,25.6,454.6,26s-77.5,8.9-94,9.6S230.7,26,209.1,22S59.4-1.7,59.8,70.2c0.3,57.5,0.1,51.9,3,67.6
				c-0.8,19.3-4.7,38.3-11.6,56.3c-10.5,27.6-22.3,54-38.8,77.2C0,288.7-2,312.8,1.6,333.5c3,17,18.1,33.3,17.8,50.8
				c5.1-6.1-0.7-19.6,1-28.1c1.3-0.2,2.7-0.3,4-0.5c0.7-9.4-6.9-19-5.8-30.6c1.2-12.2-2.7-2.8,4.3-13.7c4.6-7.2-3.1-15.3,8-49.9
				c2.9-9.1,29.9-45,37.3-100.9c5.4,13.5,16.8,49.6,6.6,91.6C71.7,264.9,61,286,61,290.6s3,54.4,5,65.8c0.9,5.1,1.3,15.9,1.4,26.7
				c-3.2,17.3-4.8,17.3-4.2,21.6c0.3,2.6,2.8,7.1,4.2,13.3c0.1,6.6,0.3,15.9,0.3,15.9s6.4,12.5,51.1,4.1c0,0-4.2-13.3-19.6-34.4
				c-24.3-33.4,20.9-102.7,23.1-107.6c2.6-5.6,5.9-10.8,9.9-15.5l26.2,111.4c0,0,1.2,4.9,7.2,6.1s10.7,27.4,10.7,27.4
				s-3.3,8.6,43.2,2.1l1.5-1.9c0,0-9.5-23.8-24-38.4s-25.9-77.7-14.2-100.6c5.3-10.5,19.7-21.7,33.8-30.7c0.9,0.1,1.3,0.2,1.3,0.2
				c33.2,23.6,110.9,35.8,139.3,36c27.4,0.2,68-5.9,144.3,11.2c-0.3,14.3,1.3,23.9,5.1,30c0,0,5.4,27.2,4,43.4s2.9,23.8,2.9,23.8
				c4.1,0.5,3.2,10.1,2.1,18.1s-0.4,22.2-0.4,22.2c30,10.5,50.8,2.8,50.8,2.8c-6-11.3-23.3-33.1-26.2-39.5s-2.9-24.1,9.8-46.7
				c8.5-15.3,16.1-32.7,22.3-49.1c1.6,11,4.2,18.5,8,23.3c0,0,6.6,24.3,9.3,42.6c1.4,9.4,2.2,18.9,2.4,28.4c4.2,0,7.8,4.5,7.8,12.6
				s2.6,18.4,2.6,18.4c25,4.4,50.5,0.3,50.5,0.3c-7.3-10.5-27.2-30.1-30.8-36c0,0-5.7-23-6.2-35.1c-0.3-8.5,3-59.3,6-92.1
				c17.3-16.5,28.3-33.9,32.2-41.2c9.4-17.8,40.4-48.5,40.4-48.5c8.7-10.4,23.5-14.7,51.3-10.2c0,0,30-2,43.3-5.8s32.3,1.9,32.3,1.9
				"/>
			<path class="st1" d="M287.1,41c-5.6,22.2-14.3,79-0.5,158.4"/>
			<path class="st1" d="M504.8,307.3c0,0,92-47.2,108.7-13.5"/>
			<path class="st1" d="M503.9,32.8c0.6,21.4,2,114.3-12.9,259.1"/>
			<path class="st1" d="M675.5,193.1l-10.3-0.1l-200.3-1.2c-140-0.8-255.6,29.3-255.6,29.3"/>
			<path class="st1" d="M385.5,42.8c-4.6,45.9-9.4,179.3-0.3,234.8"/>
			<path class="st1" d="M212.1,246.2c-35.1-100.2-22.4-185-15-216.3"/>
			<path class="st1" d="M625.6,19.9c0,0,22.9,124.7,48.5,165.3"/>
			<path class="st2" d="M612.4,266.4l2.6-2.5c15.8-15.1,26.5-31.4,30.3-38.6c3.6-6.9,9.9-15.2,16.6-23.2l-154-0.9
				c-1.6,25.1-3.8,52.7-6.6,82.7C497.2,329,555,264,602.9,278L612.4,266.4z"/>
			<g id="sirloin">
				<path id="sirloinBg" class="st3" d="M210.6,213.8c8.8-2.2,32.8-8,67.1-14C265.3,123,272,68.2,278.2,39.5
					c-30.6-2.8-60.4-6-70.8-8c-0.8-0.1-1.9-0.3-3.2-0.5C200.1,53.5,190,126.9,210.6,213.8"/>
				<path class="st4" d="M236.8,161.6c-1.4,0.5-2.9,1.4-2.8,3.2c0,1.1,0.9,2,2,2c0.1,0,0.2,0,0.2,0c1.1-0.1,1.8-0.9,2.6-2.9
					c1-2.5,2.1-4.1,4.2-4.2c2.5-0.2,4.6,1.8,4.9,5.1c0.1,0.8,0,1.5-0.2,2.3c-0.1,0.5-0.2,0.9-0.4,1.4c-1.2,0.4-2.4,0.7-3.6,0.9
					l-0.4-0.9c1.3-0.5,3.7-1.9,3.5-4.1c0-1.1-1-2-2.1-2c-0.1,0-0.2,0-0.3,0c-1.2,0.1-2,1.1-2.7,2.8c-1,2.4-2,4-4.1,4.2
					c-2.4,0.2-4.4-1.6-4.6-4.8c-0.1-1.1,0.1-2.1,0.3-3.1c0.8-0.1,1.8-0.4,3.2-0.6L236.8,161.6z"/>
				<path class="st4" d="M247.1,158.3l-0.9,0.1c-0.3-1.6-0.4-1.8-2.2-1.7l-8.1,0.5c-1.8,0.1-1.9,0.3-2,2l-0.9,0.1l-0.4-6.6l0.9-0.1
					c0.2,1.6,0.4,1.8,2.2,1.7l8.1-0.5c1.8-0.1,1.9-0.3,2-1.9l0.9-0.1L247.1,158.3z"/>
				<path class="st4" d="M246.3,139.4c0,0.1,0,0.4,0,0.7c0,2.8-0.5,3.6-1.8,4.6c-0.9,0.6-2,1.3-3.1,1.9c-0.5,0.3-0.9,0.9-0.8,1.5
					v0.5l3-0.2c1.8-0.1,1.9-0.3,2-2l0.9-0.1l0.4,6.6h-0.9c-0.2-1.6-0.4-1.9-2.2-1.8l-8.2,0.4c-1.7,0.1-1.9,0.3-1.9,1.9l-0.9,0.1
					l-0.3-6.2c-0.1-1.9,0-3.1,0.6-4c0.6-1,1.7-1.6,2.8-1.6c1.7-0.1,3.2,1,3.7,2.5c0.6-0.4,2-1.2,3-1.9c0.8-0.5,1.5-1.1,2.2-1.8
					c0.4-0.4,0.7-0.9,0.8-1.4L246.3,139.4z M239.5,148c0-0.7-0.2-1.4-0.7-2c-0.7-0.7-1.6-1.1-2.6-0.9c-2.3,0.1-3,1.5-2.9,2.8
					c0,0.4,0.1,0.7,0.3,1c0.2,0.1,0.4,0.2,0.8,0.1l5.1-0.3L239.5,148z"/>
				<path class="st4" d="M241.9,130.3c1,0.1,3.2,0.5,3.8,0.6l0.4,10.7h-0.9c-0.2-1.9-0.4-2.1-2.2-2l-8.1,0.3c-1.8,0.1-2,0.3-2,2H232
					l-0.3-6.8h0.9c0.2,1.7,0.4,1.9,2.2,1.8l8.3-0.3c1,0,1.4-0.1,1.6-0.6c0.1-0.5,0.2-1.1,0.1-1.6c0-0.8-0.2-1.6-0.8-2.1
					c-0.7-0.5-1.5-0.9-2.3-1.1L241.9,130.3z"/>
				<path class="st4" d="M238.1,117.1c4.1-0.2,7.7,2.9,7.9,7.1c0.2,4.1-2.9,7.7-7.1,7.9c-4.1,0.2-7.7-2.9-7.9-7.1c0-0.2,0-0.3,0-0.5
					c-0.2-3.9,2.8-7.2,6.7-7.4C237.9,117.1,238,117.1,238.1,117.1 M238.1,128.7c3.6-0.1,6.7-1.8,6.6-4.6c0-2-2-3.7-6-3.7
					c-4.3,0.1-6.8,2-6.7,4.4C232,127.1,234.4,128.8,238.1,128.7"/>
				<path class="st4" d="M245.6,117h-0.9c-0.2-1.6-0.3-1.8-2.1-1.8h-8.1c-1.8,0-2,0.2-2.1,1.8h-0.9v-6.6h0.9
					c0.1,1.6,0.3,1.8,2.1,1.8h8.1c1.8,0,1.9-0.2,2.1-1.8h0.9V117z"/>
				<path class="st4" d="M232.4,96.6c0,1.2,0.3,1.7,1.3,1.8c1.2,0.2,2.3,0.3,3.5,0.3l8.7,0.1v1.2l-10.8,8.8v0.1l4.8,0.1
					c1.1,0,2.3,0,3.4-0.1c0.9-0.1,1.3-0.5,1.4-2.1h0.9l-0.1,5.5h-0.9c-0.1-1.2-0.4-1.7-1.3-1.8c-1.2-0.2-2.3-0.3-3.5-0.3l-4.5-0.1
					c-1.4,0-1.8,0-2.3,0.4c-0.5,0.5-0.8,1.1-0.8,1.8h-0.9l0.1-4.2l9.6-8.1v-0.1h-3.8c-1.2,0-2.3,0-3.5,0.1c-0.9,0.1-1.2,0.6-1.3,2.1
					h-0.9l0.1-5.5L232.4,96.6z"/>
				<path id="sirloinHover" class="st3" d="M210.6,214.3c8.8-2.2,32.8-8,67.1-14c-12.4-76.8-5.6-131.6,0.5-160.3
					c-30.6-2.8-60.4-6-70.8-8c-0.8-0.1-1.9-0.3-3.2-0.5C200.1,53.9,190,127.4,210.6,214.3"/>
			</g>
			<g id="loin">
				<path id="loinBg" class="st3" d="M294.8,197c22.5-3.6,48.5-7,76.8-9.4c-0.1-54.5,2.6-112.9,5.2-143.6
					c-6.7,0.7-12.2,1.1-15.8,1.3c-0.8,0-1.8,0-3,0c-10,0-35.1-1.9-62.3-4.2C290.6,63.8,282.2,118.7,294.8,197"/>
				<path class="st4" d="M333.5,136.4c1,0.1,3.2,0.4,3.8,0.6l0.7,10.7l-0.9,0.1c-0.3-1.9-0.4-2.1-2.2-2l-8.1,0.5
					c-1.8,0.1-1.9,0.3-2,2h-0.9l-0.4-6.8l0.9-0.1c0.2,1.7,0.4,1.9,2.2,1.7l8.3-0.5c1-0.1,1.4-0.2,1.6-0.6c0.1-0.5,0.2-1.1,0.1-1.6
					c0-0.8-0.3-1.6-0.9-2.1c-0.7-0.5-1.5-0.8-2.3-1L333.5,136.4z"/>
				<path class="st4" d="M329.7,123.3c4.1-0.3,7.7,2.8,8,7c0.3,4.1-2.8,7.7-7,8c-4.1,0.3-7.7-2.8-8-7c0-0.2,0-0.3,0-0.5
					c-0.3-3.9,2.7-7.3,6.6-7.5C329.4,123.3,329.5,123.3,329.7,123.3 M329.8,134.9c3.6-0.1,6.7-1.9,6.6-4.7c-0.1-2.1-2.1-3.7-6-3.6
					c-4.3,0.1-6.8,2-6.7,4.5C323.8,133.4,326.2,135,329.8,134.9"/>
				<path class="st4" d="M336.9,123.1h-0.9c-0.2-1.6-0.3-1.8-2.1-1.8l-8.1,0.1c-1.8,0-2,0.2-2.1,1.8h-0.9l0-6.6h0.9
					c0.1,1.6,0.3,1.8,2.1,1.8l8.1-0.1c1.8,0,1.9-0.2,2.1-1.8h0.9L336.9,123.1z"/>
				<path class="st4" d="M324,102.7c0,1.2,0.3,1.7,1.3,1.8c1.2,0.2,2.3,0.3,3.5,0.3l8.7,0.2v1.2l-10.9,8.8v0.1l4.8,0.1
					c1.1,0,2.3,0,3.4-0.1c0.9-0.1,1.3-0.5,1.4-2.1h0.9l-0.1,5.5h-0.9c-0.1-1.2-0.4-1.7-1.3-1.8c-1.2-0.2-2.3-0.3-3.5-0.3l-4.5-0.1
					c-1.4,0-1.8,0-2.3,0.4c-0.5,0.5-0.8,1.1-0.8,1.8h-0.9l0.1-4.2l9.6-8.1v-0.1l-3.8-0.1c-1.2,0-2.3,0-3.5,0.1
					c-0.9,0.1-1.2,0.6-1.3,2.1H323l0.1-5.5L324,102.7z"/>
				<path id="loinHover" class="st3" d="M294.8,197c22.5-3.6,48.5-7,76.8-9.4c-0.1-54.5,2.6-112.9,5.2-143.6
					c-6.7,0.7-12.2,1.1-15.8,1.3c-0.8,0-1.8,0-3,0c-10,0-35.1-1.9-62.3-4.2C290.6,63.8,282.2,118.7,294.8,197"/>
			</g>
			<g id="rib">
				<path id="ribBg" class="st5" d="M388.9,186.2c24.1-1.7,49.6-2.7,76-2.6l26.8,0.1c4.7-79,4.3-130.1,3.9-149.8
					c-16.1,1-29.4,1.4-36.5,1.6l-4,0.1c-4.3,0.2-21.7,2.1-38.6,4c-7.4,0.8-14.9,1.7-22,2.5C391.8,71.1,388.9,130.7,388.9,186.2"/>
				<path class="st4" d="M440,121h-0.7c-2.8-0.2-3.6-0.8-4.5-2.1c-0.6-0.9-1.2-2.1-1.8-3.3c-0.2-0.6-0.8-0.9-1.4-0.9h-0.5v3
					c0,1.8,0.2,1.9,1.8,2.1v0.9h-6.6v-0.9c1.6-0.1,1.9-0.3,1.9-2.1l0-8.2c0-1.7-0.2-1.9-1.8-2.1v-0.9h6.2c1.9,0,3.1,0.2,3.9,0.8
					c1,0.6,1.5,1.8,1.5,2.9c0,1.7-1.1,3.1-2.7,3.5c0.3,0.6,1.1,2.1,1.7,3.1c0.5,0.8,1,1.6,1.6,2.3c0.4,0.4,0.8,0.7,1.3,0.9L440,121z
					 M431.9,113.7c0.7,0.1,1.5-0.1,2.1-0.5c0.8-0.6,1.2-1.6,1.1-2.5c0-2.3-1.4-3.1-2.6-3.1c-0.4-0.1-0.7,0-1,0.2
					c-0.2,0.2-0.2,0.4-0.2,0.8v5.1L431.9,113.7z"/>
				<path class="st4" d="M441.1,120.8v-0.9c1.6-0.1,1.8-0.3,1.8-2.1l0-8.2c0-1.8-0.2-2-1.8-2.1v-0.9h6.6v0.9
					c-1.6,0.1-1.8,0.3-1.8,2.1l0,8.2c0,1.8,0.2,1.9,1.8,2.1v0.9H441.1z"/>
				<path class="st4" d="M457.8,113.3c2.4,0.3,4.1,1.3,4.1,3.4c0,1.4-0.8,2.7-2.1,3.3c-1.4,0.7-3,1-4.6,0.9h-5.7V120
					c1.7-0.1,1.9-0.3,1.9-2.1l0-8.2c0-1.8-0.2-2-1.7-2.1v-0.9h6.5c1.3-0.1,2.5,0.2,3.6,0.8c0.8,0.6,1.3,1.5,1.3,2.5
					C461.1,112.1,459.2,112.9,457.8,113.3L457.8,113.3z M454.9,112.9c2,0,3-0.7,3-2.5c0.2-1.3-0.7-2.4-2-2.6c-0.1,0-0.2,0-0.4,0
					c-0.4,0-0.7,0.1-1,0.3c-0.2,0.3-0.2,0.6-0.2,0.9v4L454.9,112.9z M454.3,117.9c0,1.5,0.4,2,1.6,2c1.5,0,2.7-1.2,2.7-2.7
					c0-0.1,0-0.2,0-0.2c0-2-1.3-3-3.8-3h-0.5L454.3,117.9z"/>
				<path id="ribHover" class="st5" d="M388.9,186.2c24.1-1.7,49.6-2.7,76-2.6l26.8,0.1c4.7-79,4.3-130.1,3.9-149.8
					c-16.1,1-29.4,1.4-36.5,1.6l-4,0.1c-4.3,0.2-21.7,2.1-38.6,4c-7.4,0.8-14.9,1.7-22,2.5C391.8,71.1,388.9,130.7,388.9,186.2"/>
			</g>
			<g id="chuck">
				<path id="chuckBg" class="st6" d="M509,183.8l154.7,0.9c-26.1-45.1-44.4-152.6-46.5-164.9c-18.4,0-34.3,1.5-47.4,4.4
					c-18.4,4.2-38.6,6.8-56.9,8.4C513.3,51.7,513.8,103.4,509,183.8"/>
				<path class="st4" d="M549.6,117.6c-0.4,1.2-0.8,2.4-1.3,3.5c-1.4,0.3-2.7,0.5-4.1,0.6c-5.8,0-8.3-3.8-8.3-7.3
					c0-4.5,3.6-7.6,8.8-7.5c1.4,0.1,2.7,0.3,4,0.6c0.2,1.2,0.3,2.2,0.5,3.7l-0.9,0.2c-0.7-2.7-2.3-3.3-4-3.3c-3.1,0-4.9,2.8-4.9,6
					c0,4,2.1,6.5,5.1,6.5c1.8,0,3.1-1.1,4.2-3.3L549.6,117.6z"/>
				<path class="st4" d="M566.5,108.3c-1.8,0.1-1.9,0.3-1.9,2.1l0,8.2c0,1.8,0.2,1.9,1.8,2.1v0.9h-6.8v-0.9c1.8-0.1,1.9-0.3,2-2.1
					v-3.9h-5.9v3.9c0,1.8,0.2,1.9,1.8,2.1v0.9h-6.7v-0.9c1.6-0.1,1.8-0.3,1.8-2.1v-8.2c0-1.8-0.2-1.9-1.9-2.1v-0.9h6.7v0.9
					c-1.6,0.1-1.8,0.3-1.8,2.1v3h5.9v-3c0-1.8-0.2-1.9-1.8-2.1v-0.9h6.7L566.5,108.3z"/>
				<path class="st4" d="M583.3,108.4c-1.2,0-1.7,0.4-1.9,1.2c-0.2,1-0.2,2-0.2,2.9v2.3c0,2.3-0.4,4.2-1.7,5.5
					c-1.1,1-2.6,1.6-4.1,1.6c-1.4,0.1-2.8-0.3-3.9-1.1c-1.2-1-1.9-2.6-1.8-5.2v-5.1c0-1.9-0.2-2.1-1.8-2.2v-0.9h6.7v0.9
					c-1.6,0.1-1.8,0.3-1.8,2.2v4.7c0,3.2,1.1,5.1,3.5,5.1c2.5,0,3.7-1.9,3.7-5.4v-2.3c0-1,0-2-0.2-2.9c-0.1-0.8-0.7-1.2-2.2-1.2
					v-0.9h5.6L583.3,108.4z"/>
				<path class="st4" d="M598,117.9c-0.4,1.2-0.8,2.4-1.3,3.5c-1.4,0.3-2.7,0.5-4.1,0.6c-5.8,0-8.3-3.8-8.2-7.3
					c0-4.5,3.6-7.6,8.8-7.5c1.4,0.1,2.7,0.3,4,0.6c0.2,1.2,0.4,2.2,0.5,3.7l-0.9,0.2c-0.7-2.7-2.3-3.3-4-3.4c-3.1,0-4.9,2.8-4.9,6
					c0,4,2.1,6.5,5.1,6.5c1.8,0,3.1-1.1,4.2-3.3L598,117.9z"/>
				<path class="st4" d="M609.3,121.8c-0.8-1.2-2.6-3.7-4.3-6.1c-0.5-0.7-0.8-0.8-1.1-0.7v3.8c0,1.8,0.2,1.9,1.9,2.1v0.9h-6.6v-0.9
					c1.6-0.1,1.8-0.3,1.8-2.1v-8.2c0-1.8-0.2-2-1.9-2.1v-0.9h6.5v0.9c-1.6,0.1-1.8,0.3-1.8,2.1v3.5c0.7-0.2,1.3-0.6,1.7-1.2
					c1.1-1.1,2-2.2,2.9-3.4c0.5-0.6,0.4-0.9-0.5-1h-0.4v-0.9h5.8v0.9c-1.3,0-2.6,0.5-3.5,1.4c-1.3,1.2-2.2,2.2-3.1,3.1
					c1.3,2.1,2.9,4.2,4.5,6.2c0.5,0.8,1.4,1.4,2.3,1.5v0.9L609.3,121.8z"/>
				<path id="chuckHover" class="st6" d="M509,183.8l154.7,0.9c-26.1-45.1-44.4-152.6-46.5-164.9c-18.4,0-34.3,1.5-47.4,4.4
					c-18.4,4.2-38.6,6.8-56.9,8.4C513.3,51.7,513.8,103.4,509,183.8"/>
			</g>
			<g id="flank">
				<path id="flankBg" class="st7" d="M214.9,230.6c1.5,5.3,3.1,10.7,4.8,16.1h0.1l2.1,0.4l1.8,1.2c31.2,22.2,107.9,34,133.7,34.2
					c5,0,10.5-0.2,16.9-0.4l2-0.1c-2.9-19.5-4.3-47.1-4.7-77.1C290.9,212.2,229.7,226.9,214.9,230.6"/>
				<path class="st4" d="M282.7,239.5c-0.1-0.7-0.4-1.3-0.9-1.9c-0.4-0.4-1-0.6-2.2-0.6h-1.1c-0.8,0-0.9,0-0.9,0.8v4.6h1.7
					c1.9,0,2.1-0.2,2.4-1.6h0.9v4.4h-0.9c-0.2-1.5-0.4-1.6-2.4-1.6h-1.7v3.3c0,1.9,0.2,2.1,2.1,2.2v0.9h-6.9v-0.9
					c1.6-0.1,1.8-0.3,1.9-2.2v-8c0-1.9-0.2-2-1.8-2.2v-0.9l10.5,0.1c0,0.4,0.1,2,0.2,3.4L282.7,239.5z"/>
				<path class="st4" d="M296.4,246.4c-0.2,1-0.6,3.2-0.8,3.8l-10.7-0.1v-0.9c1.9-0.1,2.1-0.3,2.1-2.1l0-8.1c0-1.8-0.2-2-1.9-2.1
					V236h6.8v0.9c-1.7,0.1-1.9,0.3-1.9,2.1v8.3c0,1,0.1,1.4,0.5,1.6c0.5,0.2,1.1,0.2,1.6,0.2c0.8,0.1,1.6-0.2,2.2-0.7
					c0.5-0.7,0.9-1.4,1.2-2.2L296.4,246.4z"/>
				<path class="st4" d="M305.4,250.2v-0.9c1.2-0.2,1.4-0.4,1-1.3c-0.2-0.6-0.5-1.5-0.8-2.3h-4.2c-0.2,0.6-0.5,1.3-0.7,2.1
					s-0.2,1.3,1.3,1.4v0.9h-5v-0.9c1.5-0.2,1.7-0.4,2.5-2.1l4.5-11.1l1.3-0.3c1.4,3.8,2.7,7.6,4.1,11.3c0.7,1.9,1,2.1,2.4,2.3v0.9
					L305.4,250.2z M303.6,239.8L303.6,239.8c-0.7,1.6-1.2,3.1-1.8,4.7h3.4L303.6,239.8z"/>
				<path class="st4" d="M328.3,237.1c-1.2,0-1.6,0.3-1.8,1.3c-0.2,1.2-0.2,2.3-0.2,3.5l0,8.7H325l-8.9-10.8h-0.1v4.8
					c0,1.1,0,2.3,0.2,3.4c0.1,0.9,0.5,1.3,2.1,1.4v0.9h-5.5v-0.9c1.2-0.1,1.7-0.4,1.8-1.3c0.2-1.2,0.2-2.3,0.2-3.5v-4.5
					c0-1.4,0-1.8-0.4-2.3c-0.5-0.5-1.1-0.8-1.9-0.8v-0.9h4.2l8.2,9.5h0v-3.8c0-1.2,0-2.3-0.2-3.5c-0.1-0.9-0.6-1.2-2.1-1.3v-0.9h5.5
					L328.3,237.1z"/>
				<path class="st4" d="M339.5,250.4c-0.8-1.2-2.6-3.7-4.2-6.1c-0.5-0.7-0.8-0.8-1.1-0.7v3.8c0,1.8,0.2,1.9,1.9,2.1v0.9h-6.6v-0.9
					c1.6-0.1,1.8-0.3,1.8-2.1l0-8.1c0-1.8-0.2-2-1.9-2.1v-0.9h6.5v0.9c-1.6,0.1-1.8,0.3-1.8,2.1v3.5c0.7-0.2,1.2-0.6,1.7-1.1
					c1.1-1.1,2-2.2,2.9-3.4c0.5-0.6,0.4-0.9-0.5-1l-0.4-0.1v-0.9h5.8v0.9c-1.3,0-2.6,0.5-3.6,1.4c-1.3,1.2-2.2,2.2-3.1,3.1
					c1.3,2.1,2.9,4.2,4.5,6.2c0.5,0.8,1.4,1.4,2.3,1.5v0.9L339.5,250.4z"/>
				<path id="flankHover" class="st7" d="M214.9,230.6c1.5,5.3,3.1,10.7,4.8,16.1h0.1l2.1,0.4l1.8,1.2
					c31.2,22.2,107.9,34,133.7,34.2c5,0,10.5-0.2,16.9-0.4l2-0.1c-2.9-19.5-4.3-47.1-4.7-77.1C290.9,212.2,229.7,226.9,214.9,230.6"
					/>
			</g>
			<g id="plate">
				<path id="plateBg" class="st7" d="M464.8,201c-26.3-0.1-51.7,0.9-75.7,2.6c0.4,30.4,1.8,58.3,4.8,77.5l-0.3,0.7
					c3.9-0.1,4.1-0.1,8.4-0.1c27.4,0.2,54.6,3,81.5,8.2c3.1-32.4,5.5-61.9,7.2-88.7L464.8,201z"/>
				<path class="st4" d="M410.7,235.1c1.3-0.1,2.7,0.2,3.8,0.9c1.1,0.7,1.7,2,1.6,3.2c0,3-2.2,4.3-4.5,4.5c-0.3,0-0.6,0-0.9,0
					l-1.5-0.4v2.9c0,1.8,0.2,2,2.1,2.1v0.9h-6.9v-0.9c1.7-0.1,1.9-0.3,1.9-2.1v-8.2c0-1.8-0.2-1.9-1.7-2.1V235L410.7,235.1z
					 M409.2,242.4c0.4,0.1,0.8,0.2,1.2,0.2c0.8,0,2.5-0.6,2.6-3.4c0-2.4-1.5-3.2-2.7-3.2c-0.3,0-0.6,0.1-0.8,0.2
					c-0.2,0.2-0.2,0.4-0.2,0.7L409.2,242.4z"/>
				<path class="st4" d="M428.9,245.6c-0.2,1-0.6,3.2-0.8,3.8l-10.7-0.1v-0.9c1.9-0.1,2.1-0.3,2.1-2.1l0-8.1c0-1.8-0.2-2-1.9-2.1
					v-0.9h6.8v0.9c-1.7,0.1-1.9,0.3-1.9,2.1v8.3c0,1,0.1,1.4,0.5,1.6c0.5,0.2,1.1,0.2,1.6,0.2c0.8,0.1,1.6-0.2,2.2-0.7
					c0.5-0.7,0.9-1.4,1.2-2.2L428.9,245.6z"/>
				<path class="st4" d="M437.9,249.4v-0.9c1.2-0.2,1.4-0.4,1-1.3c-0.2-0.6-0.5-1.5-0.8-2.3h-4.2c-0.2,0.6-0.5,1.3-0.7,2.1
					s-0.2,1.3,1.3,1.4v0.9h-5v-0.9c1.5-0.2,1.7-0.4,2.5-2.1l4.5-11.1l1.3-0.3c1.4,3.8,2.7,7.6,4.1,11.3c0.7,1.9,1,2.1,2.4,2.3v0.9
					L437.9,249.4z M436.1,239L436.1,239c-0.6,1.6-1.2,3.1-1.8,4.7h3.4L436.1,239z"/>
				<path class="st4" d="M455.8,239.2c-0.1-0.8-0.4-1.6-0.9-2.3c-0.4-0.4-0.9-0.5-2.2-0.5h-1l-0.1,10.1c0,1.8,0.2,1.9,2.1,2.1v0.9
					h-7.2v-0.9c1.9-0.1,2.1-0.3,2.1-2.1l0-10.1H448c-1.8,0-2.2,0.2-2.5,0.6c-0.5,0.7-0.8,1.4-0.9,2.2h-0.9c0.1-1.7,0.2-3.3,0.3-4.4
					h0.6c0.3,0.5,0.6,0.5,1.2,0.6l8.8,0.1c0.5,0,1-0.2,1.2-0.5h0.6c0,0.9,0.1,2.9,0.2,4.3L455.8,239.2z"/>
				<path class="st4" d="M470,245.9c-0.2,1-0.6,3-0.8,3.7l-11.3-0.1v-0.9c1.9-0.1,2.1-0.3,2.1-2.1v-8.2c0-1.8-0.2-1.9-1.8-2.1v-0.9
					l10.5,0.1c0,0.4,0.1,1.9,0.2,3.3l-1,0.1c-0.1-0.7-0.4-1.3-0.8-1.8c-0.4-0.4-1-0.6-2.1-0.6h-1.1c-0.9,0-0.9,0-0.9,0.8v4.4h1.4
					c1.8,0,2.1-0.1,2.4-1.6h0.9v4.5h-0.9c-0.3-1.6-0.5-1.7-2.4-1.7H463v3.6c0,1,0.1,1.5,0.5,1.7c0.6,0.2,1.3,0.3,2,0.2
					c0.8,0.1,1.7-0.1,2.4-0.7c0.5-0.6,0.9-1.4,1.1-2.1L470,245.9z"/>
				<path id="plateHover" class="st7" d="M464.8,201c-26.3-0.1-51.7,0.9-75.7,2.6c0.4,30.4,1.8,58.3,4.8,77.5l-0.3,0.7
					c3.9-0.1,4.1-0.1,8.4-0.1c27.4,0.2,54.6,3,81.5,8.2c3.1-32.4,5.5-61.9,7.2-88.7L464.8,201z"/>
			</g>
			<g id="brisket">
				<path id="brisketBg" class="st8" d="M612.4,266.4l2.6-2.5c15.8-15.1,26.5-31.4,30.3-38.6c3.6-6.9,9.9-15.2,16.6-23.2l-154-0.9
					c-1.6,25.1-3.8,52.7-6.6,82.7C497.2,329,555,264,602.9,278L612.4,266.4z"/>
				<path class="st4" d="M526,242.3c2.4,0.3,4.1,1.3,4.1,3.4c0,1.4-0.8,2.7-2.1,3.3c-1.4,0.7-3,1-4.6,0.9h-5.7V249
					c1.7-0.1,1.9-0.3,1.9-2.1v-8.1c0-1.8-0.2-2-1.7-2.1v-0.9h6.5c1.3-0.1,2.5,0.2,3.6,0.8c0.8,0.6,1.3,1.5,1.3,2.5
					C529.3,241.1,527.4,241.9,526,242.3L526,242.3z M523.2,241.9c2,0,3-0.7,3-2.5c0.2-1.3-0.7-2.4-1.9-2.6c-0.1,0-0.3,0-0.4,0
					c-0.4,0-0.7,0.1-1,0.3c-0.2,0.3-0.2,0.6-0.2,0.9v4L523.2,241.9z M522.6,246.9c0,1.5,0.4,2,1.5,2c1.5,0,2.7-1.2,2.7-2.7
					c0-0.1,0-0.2,0-0.2c0-2-1.3-3-3.8-3h-0.5L522.6,246.9z"/>
				<path class="st4" d="M545.5,250.2h-0.7c-2.8-0.1-3.6-0.8-4.5-2.1c-0.6-0.9-1.2-2.1-1.8-3.3c-0.2-0.6-0.8-0.9-1.4-0.9h-0.5v3
					c0,1.8,0.2,1.9,1.8,2.1v0.9H532v-1c1.6-0.1,1.9-0.3,1.9-2.1v-8.2c0-1.7-0.2-1.9-1.8-2.1v-0.9h6.2c1.9,0,3.1,0.2,3.9,0.8
					c1,0.6,1.5,1.8,1.5,2.9c0,1.7-1.1,3.1-2.7,3.5c0.3,0.6,1.1,2.1,1.8,3.1c0.5,0.8,1,1.6,1.6,2.3c0.4,0.4,0.8,0.7,1.3,0.9
					L545.5,250.2z M537.4,242.9c0.7,0.1,1.5-0.1,2.1-0.5c0.8-0.6,1.2-1.6,1.1-2.5c0-2.3-1.3-3.1-2.6-3.1c-0.4-0.1-0.7,0-1,0.2
					c-0.2,0.1-0.2,0.4-0.2,0.8v5.1L537.4,242.9z"/>
				<path class="st4" d="M546.6,250v-0.9c1.6-0.1,1.8-0.3,1.8-2.1v-8.1c0-1.8-0.2-2-1.8-2.1v-0.9h6.6v0.9c-1.6,0.1-1.8,0.3-1.8,2.1
					v8.1c0,1.8,0.2,1.9,1.8,2.1v0.9H546.6z"/>
				<path class="st4" d="M563.2,239.6c-0.4-1.4-1.2-3-3-3c-1.1-0.1-2.1,0.7-2.1,1.8c0,0.1,0,0.1,0,0.2c0,1.2,0.8,1.9,2.7,2.8
					c2.4,1.1,3.9,2.4,3.9,4.5c0,2.5-2.2,4.4-5.4,4.4c-0.8,0-1.5-0.1-2.2-0.3c-0.5-0.1-0.9-0.3-1.3-0.5c-0.3-1.2-0.5-2.5-0.7-3.7
					l0.9-0.3c0.4,1.3,1.6,3.8,3.8,3.8c1.1,0.1,2.1-0.8,2.2-1.9c0-0.1,0-0.2,0-0.3c0-1.2-1-2-2.6-2.9c-2.3-1.1-3.8-2.4-3.8-4.4
					c0-2.4,2-4.3,5.1-4.2c1.1,0,2.1,0.2,3.1,0.6c0.1,0.8,0.2,1.8,0.4,3.2L563.2,239.6z"/>
				<path class="st4" d="M576.4,250.2c-0.8-1.2-2.6-3.7-4.2-6.1c-0.5-0.7-0.8-0.8-1.1-0.7v3.8c0,1.8,0.2,1.9,1.9,2.1v0.9h-6.6v-0.9
					c1.6-0.1,1.8-0.3,1.8-2.1l0-8.1c0-1.8-0.2-2-1.9-2.1V236h6.5v0.9c-1.6,0.1-1.7,0.3-1.8,2.1v3.5c0.7-0.2,1.2-0.6,1.7-1.1
					c1.1-1.1,2-2.2,2.9-3.4c0.5-0.6,0.5-0.9-0.5-1l-0.4-0.1V236h5.8v1c-1.3,0-2.6,0.5-3.6,1.4c-1.3,1.2-2.2,2.2-3.1,3.1
					c1.3,2.1,2.9,4.2,4.5,6.2c0.5,0.8,1.4,1.4,2.3,1.5v0.9L576.4,250.2z"/>
				<path class="st4" d="M593.7,246.6c-0.2,1-0.6,3-0.8,3.7l-11.3-0.1v-0.9c1.9-0.1,2.1-0.3,2.1-2.1l0-8.2c0-1.8-0.2-1.9-1.8-2.1
					v-0.9l10.5,0.1c0,0.4,0.1,1.9,0.2,3.3l-1,0.1c-0.1-0.7-0.4-1.3-0.8-1.8c-0.4-0.4-1-0.6-2.1-0.6h-1.1c-0.8,0-0.9,0-0.9,0.8v4.4
					h1.4c1.8,0,2.1-0.1,2.4-1.6h0.9v4.5h-0.9c-0.3-1.6-0.5-1.7-2.4-1.7h-1.4v3.6c0,1,0.1,1.5,0.5,1.7c0.6,0.2,1.3,0.3,2,0.2
					c0.8,0.1,1.7-0.1,2.4-0.7c0.5-0.6,0.9-1.4,1.2-2.1L593.7,246.6z"/>
				<path class="st4" d="M607,240.1c-0.1-0.8-0.4-1.6-0.9-2.3c-0.4-0.4-0.9-0.5-2.2-0.5h-1l-0.1,10.1c0,1.8,0.2,1.9,2.1,2.1v0.9
					h-7.2v-0.9c1.9-0.1,2.1-0.3,2.1-2.1v-10.1h-0.7c-1.8,0-2.2,0.2-2.5,0.6c-0.5,0.7-0.8,1.4-0.9,2.2H595c0.1-1.7,0.2-3.3,0.3-4.4
					h0.6c0.3,0.5,0.6,0.5,1.2,0.6l8.8,0.1c0.5,0,1-0.2,1.2-0.5h0.6c0,0.9,0.1,2.9,0.2,4.3L607,240.1z"/>
				<path id="brisketHover" class="st8" d="M611.7,266.4l2.6-2.5c15.8-15.1,26.5-31.4,30.3-38.6c3.6-6.9,9.9-15.2,16.6-23.2
					l-154-0.9c-1.6,25.1-3.8,52.7-6.6,82.7c-4.1,45.1,53.7-19.9,101.6-5.9L611.7,266.4z"/>
			</g>
			<g id="hip">
				<path id="hipBg" class="st9" d="M186.9,28.5C175,27.1,163,26.4,151,26.2c-34.6-0.2-59.4,6.2-71.8,18.6
					c-6.5,6.5-9.7,14.8-9.6,25.3l0.1,10.6c0.2,41.8,0.2,41.8,2.2,52.1c0.2,1,0.4,2,0.6,3.1l0.2,1.1v1.1c-0.1,2.1-0.2,4.1-0.4,6.2
					l5,12.6c5.7,14.4,17.9,52.8,7,97.5c-1.8,7.2-7.5,23-7.5,23c15.2-1.6,30.5-1.8,45.8-0.5c2.4-4.1,9.4-17.9,32-24.2
					c11.7-3.3,27.7-4.2,49.1,0.5C174.2,162.3,178.5,73.5,186.9,28.5"/>
				<path class="st4" d="M132.9,193.7c0.6,1.6,0.8,1.7,2.5,1.2l7.8-2.4c1.7-0.5,1.8-0.8,1.4-2.4l0.9-0.3l2,6.5l-0.9,0.3
					c-0.7-1.6-0.9-1.8-2.6-1.2l-3.7,1.2l1.8,5.6l3.7-1.2c1.7-0.5,1.8-0.7,1.4-2.4l0.9-0.3l2,6.4l-0.9,0.3c-0.6-1.5-0.8-1.7-2.5-1.1
					l-7.8,2.5c-1.7,0.5-1.8,0.8-1.4,2.4l-0.9,0.3l-2-6.4l0.9-0.3c0.6,1.5,0.8,1.6,2.5,1.1l2.9-0.9l-1.8-5.6l-2.9,0.9
					c-1.7,0.5-1.8,0.7-1.4,2.4l-0.9,0.3l-2-6.4L132.9,193.7z"/>
				<path class="st4" d="M146,191.1l-0.9,0.3c-0.6-1.5-0.8-1.7-2.5-1.2l-7.8,2.3c-1.7,0.5-1.8,0.7-1.5,2.4l-0.9,0.2l-1.9-6.4
					l0.9-0.2c0.6,1.5,0.8,1.6,2.5,1.1l7.8-2.3c1.7-0.5,1.8-0.7,1.5-2.3l0.9-0.2L146,191.1z"/>
				<path class="st4" d="M129.2,183.8c-0.5-1.3-0.5-2.6-0.2-3.9c0.4-1.2,1.4-2.1,2.7-2.4c2.9-0.8,4.7,1,5.6,3.1
					c0.1,0.3,0.2,0.6,0.3,0.9v1.6l2.8-0.8c1.7-0.5,1.8-0.7,1.5-2.6l0.9-0.2l1.8,6.7l-0.9,0.2c-0.6-1.6-0.8-1.7-2.5-1.2l-7.9,2.1
					c-1.7,0.5-1.8,0.7-1.6,2.2l-0.9,0.2L129.2,183.8z M136.7,183.3c0-0.4,0-0.8-0.1-1.2c-0.2-0.8-1.2-2.3-3.9-1.6
					c-2.4,0.6-2.7,2.2-2.4,3.5c0.1,0.3,0.2,0.5,0.4,0.7c0.2,0.1,0.5,0.1,0.7,0L136.7,183.3z"/>
				<polygon class="st4" points="142.3,173.8 142.7,175.4 126.5,174.6 126.1,172.9 				"/>
				<path class="st4" d="M136.9,154.7c0,0.1,0.1,0.4,0.1,0.7c0.5,2.7,0.1,3.7-1,4.8c-0.8,0.8-1.8,1.6-2.8,2.5
					c-0.5,0.4-0.7,1-0.5,1.6l0.1,0.5l2.9-0.7c1.7-0.4,1.9-0.6,1.6-2.3l0.9-0.2l1.5,6.5l-0.9,0.2c-0.5-1.5-0.7-1.8-2.5-1.4l-8,1.8
					c-1.7,0.4-1.8,0.6-1.6,2.2l-0.9,0.2l-1.4-6c-0.4-1.9-0.5-3-0.1-4c0.4-1.1,1.4-1.9,2.5-2.1c1.6-0.4,3.3,0.4,4.1,1.9
					c0.5-0.5,1.8-1.6,2.6-2.4c0.7-0.7,1.3-1.4,1.9-2.1c0.3-0.4,0.5-1,0.6-1.5L136.9,154.7z M131.7,164.3c-0.1-0.7-0.5-1.4-1-1.9
					c-0.8-0.6-1.8-0.7-2.7-0.4c-2.2,0.5-2.7,2-2.4,3.2c0.1,0.6,0.3,0.8,0.5,0.9s0.4,0.1,0.8,0l5-1.1L131.7,164.3z"/>
				<path class="st4" d="M127.2,143.2c4.1-0.6,7.9,2.2,8.6,6.3c0.6,3.8-1.8,7.5-5.6,8.4c-3.9,0.8-7.8-1.7-8.7-5.6
					c0-0.2-0.1-0.4-0.1-0.5c-0.9-3.8,1.5-7.6,5.3-8.5C126.9,143.2,127,143.2,127.2,143.2 M129.1,154.6c3.6-0.7,6.3-2.9,5.8-5.6
					c-0.4-2-2.6-3.3-6.5-2.6c-4.2,0.8-6.4,3.1-5.9,5.5C122.9,154.1,125.5,155.3,129.1,154.6"/>
				<path class="st4" d="M118.9,129.1c0.2,1.1,0.7,1.6,1.5,1.6c1,0,2-0.1,2.9-0.3l2.3-0.4c2.3-0.4,4.2-0.3,5.7,0.7
					c1.2,0.9,2,2.3,2.2,3.8c0.3,1.4,0.1,2.8-0.5,4c-0.8,1.4-2.3,2.3-4.8,2.7l-5,0.8c-1.9,0.3-2,0.5-1.9,2.1l-0.9,0.1l-1-6.6l0.9-0.1
					c0.4,1.6,0.6,1.7,2.5,1.4l4.6-0.7c3.2-0.5,4.8-1.9,4.5-4.2c-0.4-2.5-2.5-3.4-6-2.8l-2.3,0.4c-1,0.1-1.9,0.4-2.9,0.7
					c-0.7,0.2-1,0.8-0.9,2.3l-0.9,0.1l-0.9-5.6L118.9,129.1z"/>
				<path class="st4" d="M117.1,114.6c0.2,1.2,0.5,1.6,1.5,1.6c1.2,0,2.3,0,3.5-0.2l8.6-1l0.1,1.2l-9.6,10.1v0.1l4.8-0.6
					c1.1-0.1,2.3-0.3,3.4-0.6c0.9-0.2,1.2-0.7,1.1-2.3l0.9-0.1l0.6,5.5l-0.9,0.1c-0.2-1.2-0.6-1.6-1.5-1.7c-1.2,0-2.3,0.1-3.5,0.2
					l-4.5,0.5c-1.4,0.2-1.8,0.2-2.2,0.7c-0.5,0.5-0.7,1.2-0.5,1.9l-0.9,0.1l-0.5-4.1l8.5-9.3v-0.1l-3.8,0.4
					c-1.2,0.1-2.3,0.3-3.4,0.6c-0.9,0.2-1.2,0.7-1,2.3l-0.9,0.1l-0.7-5.5L117.1,114.6z"/>
				<path class="st4" d="M115.8,108.4c-0.2-2.8,0.2-4.9,1.4-6.4c1.1-1.4,2.7-2.2,4.5-2.3c2.3-0.3,4.5,0.6,6,2.3
					c1.4,1.9,2.3,4.1,2.3,6.5l0.4,5.7l-0.9,0.1c-0.3-1.7-0.4-1.9-2.2-1.8l-8.1,0.6c-1.8,0.1-1.9,0.3-2,1.9l-0.9,0.1L115.8,108.4z
					 M127,109.5c1.5-0.1,2-0.5,1.9-2c-0.2-2.9-2.7-4.7-6.5-4.5c-1.7,0-3.3,0.7-4.5,1.9c-0.9,1-1.3,2.4-1.1,3.7
					c0,0.5,0.1,0.9,0.4,1.3c0.4,0.2,0.8,0.2,1.2,0.1L127,109.5z"/>
				<path id="hipHover" class="st9" d="M187,28.5c-11.9-1.4-23.9-2.2-35.9-2.3c-34.6-0.2-59.4,6.2-71.8,18.6
					c-6.5,6.5-9.7,14.8-9.6,25.3l0.1,10.6c0.2,41.8,0.2,41.8,2.2,52.1c0.2,1,0.4,2,0.6,3.1l0.2,1.1v1.1c-0.1,2.1-0.2,4.1-0.4,6.2
					l5,12.6c5.7,14.4,17.9,52.8,7,97.5c-1.8,7.2-7.5,23-7.5,23c15.2-1.6,30.5-1.8,45.8-0.5c2.4-4.1,9.4-17.9,32-24.2
					c11.7-3.3,27.7-4.2,49.1,0.5C174.3,162.3,178.6,73.5,187,28.5"/>
			</g>
			<g id="shank2">
				<path id="shank2Bg" class="st8" d="M515.9,339.8l0.3,1.7c2,10.5,3.4,21.1,4.2,31.7l15.8,0.1c1.5-3.6,3.3-7.1,5.2-10.5
					c7.3-13.1,14.6-29.1,21.7-47.8l8.5-26.1c-25.9,0.8-49.9,15.7-60.1,19.5l-0.1,5c-0.2,12.1,1,20.5,3.6,24.7L515.9,339.8z"/>
				<path class="st4" d="M526.2,346c-1.1,0.2-2.4,0.6-2.6,2c-0.1,0.9,0.5,1.7,1.3,1.8c0,0,0.1,0,0.1,0c0.9,0.1,1.5-0.5,2.4-1.9
					c1.1-1.8,2.2-2.8,3.8-2.6c2,0.2,3.3,2,3,4.5c-0.1,0.6-0.2,1.2-0.4,1.7c-0.1,0.3-0.3,0.7-0.5,1c-1,0.1-1.9,0.2-2.9,0.2l-0.1-0.8
					c1.1-0.2,3.1-1,3.3-2.6c0.1-0.9-0.5-1.7-1.3-1.8c-0.1,0-0.1,0-0.2,0c-1-0.1-1.7,0.6-2.5,1.8c-1.1,1.7-2.1,2.8-3.7,2.6
					c-1.9-0.2-3.1-1.9-2.9-4.3c0.1-0.8,0.4-1.6,0.7-2.4c0.6,0,1.4,0,2.5,0L526.2,346z"/>
				<path class="st4" d="M526.9,331.2c-0.2,1.4-0.1,1.5,1.3,1.7l6.2,1.2c1.4,0.3,1.5,0.2,1.8-1.1l0.7,0.1l-1,5.2l-0.7-0.1
					c0.2-1.4,0.1-1.5-1.3-1.8l-3-0.6l-0.9,4.5l3,0.6c1.4,0.3,1.5,0.2,1.8-1.1l0.7,0.1l-1,5.1L534,345c0.1-1.3,0.1-1.4-1.3-1.7
					l-6.2-1.2c-1.4-0.3-1.5-0.1-1.9,1.1l-0.7-0.1l1-5.1l0.7,0.1c-0.1,1.2,0,1.4,1.3,1.6l2.3,0.5l0.9-4.5l-2.3-0.5
					c-1.4-0.3-1.5-0.2-1.8,1.1l-0.7-0.1l1-5.1L526.9,331.2z"/>
				<path class="st4" d="M538,330.5l-0.7-0.2c0.1-1,0-1.1-0.8-1c-0.5,0-1.2,0.1-1.9,0.2l-0.8,3.1c0.4,0.3,0.9,0.6,1.5,1
					s0.9,0.4,1.3-0.7l0.7,0.2l-1,3.8l-0.7-0.2c0.2-1.2,0.1-1.4-1.1-2.3l-7.5-5.6v-1c3.1-0.3,6.2-0.5,9.3-0.8
					c1.5-0.2,1.8-0.3,2.2-1.4l0.7,0.2L538,330.5z M529.8,329.8L529.8,329.8c1.1,0.8,2.1,1.5,3.2,2.2l0.7-2.5L529.8,329.8z"/>
				<path class="st4" d="M532.9,312.9c-0.3,0.9-0.2,1.3,0.5,1.6c0.8,0.4,1.6,0.8,2.5,1.1l6.3,2.3l-0.3,0.9l-10.2,3.8v0l3.5,1.2
					c0.8,0.3,1.7,0.6,2.5,0.8c0.7,0.2,1.1,0,1.6-1.2l0.7,0.2l-1.4,4l-0.7-0.2c0.2-0.9,0.1-1.4-0.5-1.7c-0.8-0.4-1.6-0.8-2.5-1.1
					l-3.3-1.2c-1-0.4-1.3-0.5-1.8-0.3s-0.8,0.5-1,1.2l-0.7-0.2l1.1-3.1l9.1-3.6v0l-2.8-1c-0.9-0.3-1.7-0.6-2.6-0.8
					c-0.7-0.1-1.1,0.1-1.5,1.2l-0.7-0.2l1.4-4L532.9,312.9z"/>
				<path class="st4" d="M545.7,310c-1.1,0.2-3.5,0.7-5.7,1.1c-0.6,0.1-0.8,0.3-0.8,0.5l2.7,1.2c1.3,0.6,1.4,0.5,2.1-0.7l0.7,0.3
					l-2.1,4.7l-0.7-0.3c0.4-1.2,0.4-1.4-0.9-1.9l-5.8-2.6c-1.3-0.6-1.5-0.5-2.1,0.7l-0.7-0.3l2.1-4.6l0.7,0.3
					c-0.4,1.2-0.4,1.3,0.9,1.9l2.5,1.1c0-0.5-0.1-1.1-0.3-1.6c-0.4-1.1-0.9-2.1-1.5-3.2c-0.3-0.5-0.5-0.6-0.9,0l-0.2,0.3l-0.7-0.3
					l1.8-4.1l0.7,0.3c-0.4,1-0.5,2-0.1,3c0.4,1.3,0.9,2.3,1.3,3.2c1.9-0.3,3.9-0.8,5.8-1.2c0.8-0.1,1.4-0.5,1.8-1.2l0.7,0.3
					L545.7,310z"/>
				<path id="shank2Hover" class="st8" d="M515.9,339.8l0.3,1.7c2,10.5,3.4,21.1,4.2,31.7l15.8,0.1c1.5-3.6,3.3-7.1,5.2-10.5
					c7.3-13.1,14.6-29.1,21.7-47.8l8.5-26.1c-25.9,0.8-49.9,15.7-60.1,19.5l-0.1,5c-0.2,12.1,1,20.5,3.6,24.7L515.9,339.8z"/>
			</g>
			<path class="st10" d="M747.4,12.8c5.5,1.2,9,6.7,7.8,12.2s-6.7,9-12.2,7.8c-5.5-1.2-9-6.7-7.8-12.2c0,0,0,0,0,0
				C736.4,15,741.9,11.5,747.4,12.8C747.4,12.8,747.4,12.8,747.4,12.8"/>
			<path class="st0" d="M746.2,18.2c2.5,0.6,4.1,3.1,3.6,5.6s-3.1,4.1-5.6,3.6c-2.5-0.6-4.1-3.1-3.6-5.6
				C741.2,19.2,743.7,17.6,746.2,18.2"/>
			<g id="shank1">
				<path id="shank1Bg" class="st8" d="M72.7,367.5h14.7c0.9-2,3-15.1,8-30.3c4.3-13.1,12-27.4,17-37.5l5.8-8.5
					c-28-2.6-38.5-0.9-49.8,3.4c0,0-0.5,18.1,0,38C68.7,344.5,70.8,357,72.7,367.5"/>
				<path class="st4" d="M78,349.5c-1.2,0.3-2.6,0.9-2.6,2.5c-0.1,1,0.6,1.8,1.6,1.9c0,0,0.1,0,0.1,0c1,0,1.6-0.6,2.4-2.3
					c1-2,2.1-3.3,4-3.3c2.2,0.1,3.8,2,3.7,4.8c0,0.7-0.1,1.3-0.4,1.9c-0.1,0.4-0.3,0.8-0.4,1.1c-1.1,0.2-2.1,0.4-3.2,0.5l-0.3-0.8
					c1.2-0.3,3.3-1.3,3.3-3.2c0.1-1-0.7-1.8-1.6-1.9c-0.1,0-0.2,0-0.2,0c-1.1,0-1.8,0.8-2.6,2.2c-1,2-2.1,3.3-3.9,3.2
					c-2.1,0-3.6-1.8-3.6-4.5c0-0.9,0.2-1.8,0.6-2.6c0.7,0,1.5-0.1,2.8-0.3L78,349.5z"/>
				<path class="st4" d="M77.8,333.5c-0.1,1.5,0.1,1.6,1.6,1.8l7,0.8c1.5,0.2,1.7,0,1.9-1.4l0.8,0.1l-0.7,5.8l-0.8-0.1
					c0-1.5,0-1.7-1.6-1.9l-3.3-0.4l-0.6,5.1l3.3,0.4c1.5,0.2,1.7,0,1.9-1.4l0.8,0.1l-0.6,5.7l-0.8-0.1c0-1.4-0.1-1.6-1.6-1.8l-7-0.8
					c-1.5-0.2-1.7,0-2,1.4l-0.8-0.1l0.6-5.7l0.8,0.1c0,1.4,0.1,1.5,1.6,1.7l2.6,0.3l0.6-5.1l-2.6-0.3c-1.5-0.2-1.7-0.1-1.9,1.4
					l-0.8-0.1l0.6-5.7L77.8,333.5z"/>
				<path class="st4" d="M89.6,328.9l-0.8-0.1c0-1.1-0.2-1.2-1-1c-0.6,0.1-1.3,0.3-2,0.5l-0.4,3.6c0.5,0.2,1.1,0.5,1.8,0.8
					s1.1,0.3,1.4-1l0.8,0.1l-0.5,4.3l-0.8,0c0-1.3-0.2-1.5-1.6-2.3l-9.1-4.9l-0.1-1.1c3.4-0.8,6.7-1.6,10.1-2.4
					c1.7-0.4,1.9-0.6,2.2-1.8l0.8,0.1L89.6,328.9z M80.5,329.4L80.5,329.4c1.3,0.7,2.6,1.3,3.8,2l0.3-2.9L80.5,329.4z"/>
				<path class="st4" d="M80.1,310.2c-0.1,1,0.2,1.5,0.9,1.6c1,0.2,2,0.4,3,0.5l7.4,0.8l-0.1,1l-10,6.7v0l4.1,0.5c1,0.1,2,0.2,3,0.2
					c0.8,0,1.2-0.3,1.4-1.7l0.8,0.1l-0.5,4.7l-0.8-0.1c0-1-0.2-1.5-1-1.7c-1-0.2-2-0.4-3-0.5l-3.8-0.4c-1.2-0.1-1.5-0.1-2,0.2
					c-0.5,0.4-0.8,0.9-0.8,1.5l-0.8-0.1l0.4-3.6l8.9-6.2v-0.1l-3.3-0.4c-1-0.1-2-0.2-3-0.2c-0.8,0-1.1,0.4-1.3,1.7l-0.8-0.1l0.5-4.7
					L80.1,310.2z"/>
				<path class="st4" d="M92.3,302.6c-1.1,0.6-3.4,2-5.6,3.2c-0.6,0.3-0.7,0.6-0.7,0.9l3.2,0.3c1.6,0.1,1.7,0,2-1.4l0.8,0.1
					l-0.6,5.6l-0.8-0.1c0-1.4-0.1-1.5-1.7-1.7l-7-0.7c-1.6-0.1-1.7,0-2,1.4l-0.8-0.1l0.6-5.6l0.8,0.1c0,1.4,0.1,1.5,1.6,1.7l3,0.3
					c-0.2-0.6-0.4-1.1-0.8-1.6c-0.8-1-1.7-1.9-2.7-2.8c-0.5-0.5-0.8-0.5-0.9,0.3l-0.1,0.4l-0.8-0.1l0.5-5l0.8,0.1
					c-0.1,1.1,0.3,2.3,1,3.2c0.9,1.2,1.7,2.1,2.4,2.9c1.9-1,3.9-2.2,5.7-3.4c0.7-0.4,1.3-1.1,1.5-1.9l0.8,0.1L92.3,302.6z"/>
				<path id="shank1Hover" class="st8" d="M72.7,367.5h14.7c0.9-2,3-15.1,8-30.3c4.3-13.1,12-27.4,17-37.5l5.8-8.5
					c-28-2.6-38.5-0.9-49.8,3.4c0,0-0.5,18.1,0,38C68.7,344.5,70.8,357,72.7,367.5"/>
			</g>
			<path class="st11" d="M70.1,286.2c0,0,3.2-5.5,54.7-2"/>
		</g>
	</g>
</g>
</svg>
